<svg width="285" height="201" viewBox="0 0 285 201" fill="none" xmlns="http://www.w3.org/2000/svg">
<mask id="mask0_779_12892" style="mask-type:alpha" maskUnits="userSpaceOnUse" x="0" y="0" width="285" height="221">
<rect width="285" height="221" rx="8" fill="#1264E0"/>
</mask>
<g mask="url(#mask0_779_12892)">
<path d="M253.714 151.252V151.162C254.135 149.766 254.537 148.352 254.884 146.938C255.504 147.915 256.346 148.734 257.343 149.33C258.341 149.925 259.465 150.279 260.626 150.364H261.12C264.173 150.074 267.099 147.137 268.946 142.514C268.982 142.431 269 142.341 269 142.251C269 142.161 268.982 142.071 268.946 141.988C268.857 141.823 268.706 141.699 268.525 141.644C266.334 141.093 264.049 141.007 261.821 141.391C259.594 141.775 257.473 142.621 255.598 143.874C255.872 142.532 256.11 141.172 256.311 139.831C256.793 139.923 257.283 139.972 257.774 139.976C262.747 139.976 266.404 135.57 266.587 135.353C266.651 135.273 266.696 135.179 266.717 135.079C266.738 134.979 266.735 134.875 266.709 134.776C266.682 134.678 266.632 134.586 266.564 134.51C266.495 134.434 266.409 134.375 266.313 134.338C265.157 133.769 263.894 133.449 262.605 133.399C261.316 133.349 260.031 133.57 258.834 134.047C257.557 134.692 256.524 135.728 255.89 137.003C254.958 134.166 253.255 131.639 250.968 129.7C248.68 127.762 245.897 126.487 242.926 126.016C242.834 125.994 242.738 125.995 242.645 126.017C242.553 126.039 242.468 126.082 242.396 126.143C242.319 126.196 242.256 126.267 242.211 126.349C242.167 126.43 242.142 126.521 242.14 126.614C241.884 131.092 242.03 136.586 245.413 139.196C246.828 140.231 248.557 140.755 250.313 140.683C251.887 140.645 253.448 140.401 254.958 139.958C254.475 143.198 253.772 146.402 252.855 149.548C249.546 145.078 244.851 141.805 239.488 140.23C239.319 140.191 239.141 140.218 238.991 140.305C238.841 140.393 238.731 140.535 238.684 140.701C237.66 144.563 238.19 147.699 240.201 149.766C241.224 150.677 242.422 151.374 243.722 151.817C245.023 152.259 246.4 152.437 247.771 152.34C249.246 152.331 250.715 152.179 252.16 151.887C251.319 154.534 250.331 157.126 249.399 159.592C247.369 157.779 241.39 153.283 234.88 155.168C234.705 155.226 234.561 155.35 234.478 155.513C234.442 155.596 234.424 155.685 234.424 155.776C234.424 155.866 234.442 155.956 234.478 156.039C236.307 160.317 238.263 162.692 240.786 163.508C241.459 163.728 242.163 163.838 242.871 163.834C244.803 163.753 246.686 163.205 248.357 162.239C246.967 165.52 245.486 168.584 244.078 171.304C242.407 169.614 240.307 168.402 238 167.796C235.692 167.19 233.263 167.212 230.967 167.859C230.811 167.89 230.671 167.978 230.576 168.105C230.482 168.233 230.439 168.391 230.455 168.548C230.617 169.919 231.14 171.224 231.971 172.331C232.802 173.439 233.913 174.31 235.191 174.857C236.156 175.268 237.195 175.478 238.245 175.474C239.701 175.455 241.131 175.088 242.414 174.404C240.988 177.033 239.671 179.226 238.647 180.894H226.213C224.238 177.54 221.953 173.371 219.722 168.693C220.761 169.001 221.837 169.165 222.922 169.183C224.255 169.199 225.574 168.911 226.777 168.34C227.98 167.77 229.035 166.932 229.859 165.893C230.683 164.853 231.254 163.639 231.529 162.345C231.804 161.052 231.774 159.712 231.443 158.432C231.4 158.283 231.304 158.155 231.173 158.071C231.041 157.988 230.884 157.955 230.73 157.979C228.19 158.224 225.748 159.072 223.609 160.451C221.47 161.83 219.698 163.7 218.442 165.901C216.979 162.638 215.553 159.175 214.309 155.604C215.892 156.496 217.665 157.006 219.484 157.09C220.206 157.098 220.924 156.982 221.605 156.746C225.262 155.549 227.365 151.18 229.157 146.648C229.197 146.566 229.218 146.476 229.218 146.385C229.218 146.294 229.197 146.204 229.157 146.122C229.115 146.039 229.056 145.965 228.983 145.906C228.911 145.846 228.827 145.803 228.736 145.777C221.422 143.747 215.406 150.727 213.541 153.229C212.566 150.21 211.754 147.142 211.109 144.037C212.646 144.335 214.207 144.493 215.772 144.508C217.328 144.621 218.891 144.415 220.363 143.904C221.835 143.392 223.185 142.586 224.33 141.535C226.542 139.214 227.072 135.734 225.884 131.491C225.863 131.408 225.825 131.33 225.773 131.262C225.72 131.193 225.655 131.136 225.579 131.094C225.504 131.052 225.421 131.025 225.335 131.015C225.249 131.006 225.162 131.013 225.079 131.038C219.244 132.843 214.165 136.492 210.616 141.426L210.341 139.776C210.322 139.634 210.258 139.501 210.159 139.396C209.857 138.323 209.332 137.325 208.617 136.466C207.902 135.607 207.013 134.907 206.008 134.41C204.689 133.905 203.277 133.683 201.865 133.758C200.453 133.833 199.073 134.204 197.816 134.845C197.719 134.887 197.633 134.949 197.564 135.027C197.494 135.105 197.443 135.198 197.414 135.298C197.391 135.397 197.393 135.499 197.418 135.597C197.444 135.695 197.492 135.785 197.56 135.86C197.743 136.096 201.766 140.81 207.178 140.81C207.761 140.802 208.343 140.742 208.915 140.628C209.153 142.17 209.445 143.711 209.775 145.233C207.689 143.872 205.337 142.965 202.872 142.571C200.407 142.178 197.886 142.306 195.475 142.949C195.295 143.004 195.143 143.128 195.055 143.294C195.019 143.38 195 143.472 195 143.565C195 143.659 195.019 143.751 195.055 143.837C197.158 148.877 200.412 152.068 203.777 152.34H204.234C205.935 152.34 208.239 151.561 210.579 148.46C211.501 151.986 212.612 155.459 213.907 158.867C210.744 157.38 203.631 154.824 198.547 158.722C198.477 158.772 198.419 158.835 198.374 158.909C198.33 158.982 198.301 159.063 198.289 159.148C198.277 159.233 198.282 159.319 198.305 159.401C198.327 159.484 198.366 159.561 198.419 159.628C201.711 164.07 204.746 166.227 207.727 166.227C210.195 166.227 212.554 164.686 214.913 161.641C216.266 164.977 217.729 168.167 219.173 171.104C216.01 169.164 212.536 169.473 208.44 172.029C208.345 172.085 208.267 172.165 208.212 172.26C208.158 172.356 208.129 172.463 208.129 172.573C208.121 172.68 208.143 172.786 208.191 172.882C208.239 172.978 208.313 173.059 208.403 173.117C210.843 174.86 213.723 175.896 216.723 176.108C218.27 176.139 219.788 175.682 221.057 174.803C222.227 177.033 223.379 179.081 224.439 180.912H218.789V184.103H220.837L222.538 201H247.57L249.253 184.103H251.319V180.912H240.073C241.317 178.864 242.908 176.126 244.608 172.917C244.659 172.853 244.696 172.779 244.718 172.7C245.157 171.884 245.577 171.05 246.016 170.18C246.76 171.295 247.762 172.218 248.939 172.871C250.116 173.524 251.434 173.888 252.782 173.933C253.062 173.951 253.343 173.951 253.623 173.933C255.112 173.765 256.526 173.192 257.707 172.277C258.889 171.362 259.791 170.14 260.315 168.747C260.369 168.604 260.369 168.447 260.316 168.304C260.262 168.16 260.158 168.041 260.023 167.968C258.105 166.894 255.958 166.288 253.758 166.2C251.557 166.111 249.368 166.544 247.369 167.46C248.32 165.484 249.198 163.363 250.149 161.169C250.22 161.088 250.265 160.987 250.277 160.879C250.533 160.263 250.77 159.646 251.026 159.066C253.202 161.786 255.36 163.127 257.609 163.127C260.333 163.127 263.095 161.133 266.057 157.018C266.16 156.88 266.204 156.708 266.18 156.538C266.156 156.369 266.066 156.215 265.929 156.111C261.266 152.648 254.958 155.023 251.995 156.401C252.599 154.77 253.147 153.12 253.659 151.434L253.714 151.252Z" fill="#367EEA"/>
</g>
</svg>
