<svg width="68" height="96" viewBox="0 0 68 96" fill="none" xmlns="http://www.w3.org/2000/svg">
<rect width="68" height="95.4615" rx="4" fill="white"/>
<rect width="68" height="95.4615" rx="4" fill="url(#paint0_linear_1189_1773)"/>
<mask id="mask0_1189_1773" style="mask-type:alpha" maskUnits="userSpaceOnUse" x="0" y="0" width="68" height="96">
<path d="M0 0H64C66.2091 0 68 1.79086 68 4V91.4615C68 93.6707 66.2091 95.4615 64 95.4615H0V0Z" fill="url(#paint1_linear_1189_1773)"/>
</mask>
<g mask="url(#mask0_1189_1773)">
<ellipse cx="3.92353" cy="89.8092" rx="20.2692" ry="19.4691" fill="url(#paint2_linear_1189_1773)"/>
<ellipse cx="60.2237" cy="58.9779" rx="60.2237" ry="58.9779" transform="matrix(-0.879779 -0.475382 0.505372 -0.862901 80.4668 96.8671)" fill="url(#paint3_linear_1189_1773)"/>
<path d="M0 4.00001C0 1.79087 1.79086 0 4 0H11.1154V95.4615H4C1.79086 95.4615 0 93.6707 0 91.4615V4.00001Z" fill="url(#paint4_linear_1189_1773)"/>
</g>
<path d="M11.1152 13.3047C11.1152 12.2001 12.0107 11.3047 13.1152 11.3047H67.9998V36.4261H13.1152C12.0107 36.4261 11.1152 35.5307 11.1152 34.4261V13.3047Z" fill="#639BEE"/>
<path d="M22.2857 16.8988H25.9157V17.8288H22.2857V16.8988ZM23.8257 17.2688H24.9157V20.0188H23.8257V17.2688ZM17.9557 20.1988H24.7657V24.0788H23.5757V21.0988H19.0857V24.0888H17.9557V20.1988ZM18.7657 21.5888H23.8957V22.3888H18.7657V21.5888ZM18.7657 22.8788H23.9057V23.7788H18.7657V22.8788ZM25.2457 14.7888L25.7757 15.6988C24.7657 15.9788 23.3757 16.1388 22.2157 16.1988C22.1857 15.9588 22.0657 15.5888 21.9557 15.3488C23.0957 15.2488 24.3957 15.0588 25.2457 14.7888ZM21.9557 15.3488H23.0057V16.8388C23.0057 17.8488 22.8657 19.2188 22.1357 20.0888C21.9457 19.9188 21.4757 19.5988 21.2257 19.4988C21.8857 18.7088 21.9557 17.6288 21.9557 16.8188V15.3488ZM16.8357 15.2888H21.5657V16.1788H16.8357V15.2888ZM19.1157 16.4188H20.2057V19.9988H19.1157V16.4188ZM17.1657 18.0488C17.1057 17.8288 16.9357 17.3088 16.8057 17.0088C16.9857 16.9688 17.1557 16.8088 17.3457 16.5788C17.5357 16.3688 18.1457 15.5188 18.4757 14.7088L19.6857 14.9888C19.1257 15.9388 18.3257 16.9188 17.6557 17.5088V17.5388C17.6557 17.5388 17.1657 17.8688 17.1657 18.0488ZM17.1657 18.0488V17.2488L17.6657 16.9788H21.5957V17.8988H18.0257C17.6257 17.8988 17.2557 17.9588 17.1657 18.0488ZM16.8257 18.5988C17.9757 18.5288 19.7457 18.3888 21.4557 18.2488V19.0988C19.8257 19.2688 18.1257 19.4288 16.9057 19.5588L16.8257 18.5988ZM26.7957 18.1788H35.9357V19.3588H26.7957V18.1788ZM27.3957 15.3188H35.3957V16.4988H27.3957V15.3188ZM31.3757 19.1588H32.6357V22.2288C32.6357 22.6088 32.7057 22.6688 33.1357 22.6688C33.3257 22.6688 34.1257 22.6688 34.3557 22.6688C34.7657 22.6688 34.8357 22.4588 34.8957 21.1788C35.1557 21.3888 35.7057 21.5888 36.0457 21.6688C35.9057 23.3788 35.5657 23.8388 34.4657 23.8388C34.1957 23.8388 33.2157 23.8388 32.9657 23.8388C31.6957 23.8388 31.3757 23.4488 31.3757 22.2388V19.1588ZM30.5557 15.7988H31.7957C31.6857 18.8988 31.5457 22.3888 27.4457 24.0788C27.2757 23.7688 26.9357 23.3188 26.6257 23.0688C30.5057 21.6088 30.4757 18.5188 30.5557 15.7988ZM41.5557 16.9288H45.9857V18.0788H41.5557V16.9288ZM37.0457 15.8488H41.1757V16.9188H37.0457V15.8488ZM36.9757 20.0888H41.2757V21.1588H36.9757V20.0888ZM36.7657 17.8988H41.3657V18.9888H36.7657V17.8988ZM43.9157 14.7988H45.1057V22.6988C45.1057 23.3288 44.9657 23.6488 44.5957 23.8388C44.2157 24.0288 43.6557 24.0788 42.8457 24.0788C42.7957 23.7488 42.5857 23.2188 42.4057 22.8988C42.9557 22.9188 43.4957 22.9188 43.6757 22.9188C43.8557 22.9188 43.9157 22.8588 43.9157 22.6988V14.7988ZM41.6557 19.1288L42.6657 18.7588C42.9857 19.4588 43.4057 20.4088 43.6057 20.9688L42.5157 21.4188C42.3457 20.8388 41.9657 19.8688 41.6557 19.1288ZM38.5457 14.6988H39.7057V18.4588H38.5457V14.6988ZM38.5457 19.2088H39.7057V23.0088H38.5457V19.2088ZM36.6357 22.5288C37.8757 22.3988 39.7757 22.1588 41.5057 21.9388L41.5557 23.0488C39.8757 23.2888 38.0757 23.5288 36.7757 23.7088L36.6357 22.5288ZM49.9457 19.1088H52.5157V20.0488H49.9457V19.1088ZM49.9457 20.7888H52.5257V21.7288H49.9457V20.7888ZM48.0057 22.4788H54.7557V23.5788H48.0057V22.4788ZM47.2557 17.3088H55.4257V24.0888H54.2057V18.4088H48.4057V24.0888H47.2557V17.3088ZM49.4357 18.0388H50.5057V22.9688H49.4357V18.0388ZM52.0457 18.0388H53.1257V22.9588H52.0457V18.0388ZM50.5657 15.7888L51.9857 16.0888C51.7457 16.8288 51.5257 17.6088 51.3257 18.1288L50.2257 17.8388C50.3657 17.2588 50.5257 16.4188 50.5657 15.7888ZM46.8357 15.2688H55.8757V16.4088H46.8357V15.2688Z" fill="white"/>
<path d="M22.304 34H21.464L18.408 29.256H18.376C18.3813 29.352 18.3867 29.4587 18.392 29.576C18.4027 29.6933 18.4107 29.8213 18.416 29.96C18.4213 30.0933 18.4267 30.232 18.432 30.376C18.4373 30.52 18.44 30.664 18.44 30.808V34H17.776V28.288H18.608L21.656 33.016H21.688C21.6827 32.952 21.6773 32.864 21.672 32.752C21.6667 32.6347 21.6613 32.5067 21.656 32.368C21.6507 32.224 21.6453 32.0773 21.64 31.928C21.6347 31.7787 21.632 31.64 21.632 31.512V28.288H22.304V34ZM29.3981 31.136C29.3981 31.5787 29.3421 31.9813 29.2301 32.344C29.1181 32.7013 28.9501 33.0107 28.7261 33.272C28.5075 33.5333 28.2328 33.7333 27.9021 33.872C27.5768 34.0107 27.1981 34.08 26.7661 34.08C26.3181 34.08 25.9288 34.0107 25.5981 33.872C25.2675 33.728 24.9928 33.528 24.7741 33.272C24.5555 33.0107 24.3928 32.6987 24.2861 32.336C24.1795 31.9733 24.1261 31.5707 24.1261 31.128C24.1261 30.5413 24.2221 30.0293 24.4141 29.592C24.6061 29.1547 24.8968 28.8133 25.2861 28.568C25.6808 28.3227 26.1768 28.2 26.7741 28.2C27.3448 28.2 27.8248 28.3227 28.2141 28.568C28.6035 28.808 28.8968 29.1493 29.0941 29.592C29.2968 30.0293 29.3981 30.544 29.3981 31.136ZM24.8861 31.136C24.8861 31.616 24.9528 32.0293 25.0861 32.376C25.2195 32.7227 25.4248 32.9893 25.7021 33.176C25.9848 33.3627 26.3395 33.456 26.7661 33.456C27.1981 33.456 27.5501 33.3627 27.8221 33.176C28.0995 32.9893 28.3048 32.7227 28.4381 32.376C28.5715 32.0293 28.6381 31.616 28.6381 31.136C28.6381 30.416 28.4888 29.8533 28.1901 29.448C27.8915 29.0373 27.4195 28.832 26.7741 28.832C26.3421 28.832 25.9848 28.9253 25.7021 29.112C25.4248 29.2933 25.2195 29.5573 25.0861 29.904C24.9528 30.2453 24.8861 30.656 24.8861 31.136ZM35.4703 34H33.4063V33.584L34.0783 33.432V28.864L33.4063 28.704V28.288H35.4703V28.704L34.7983 28.864V33.432L35.4703 33.584V34ZM39.6532 34L37.7732 28.992H37.7412C37.7519 29.0987 37.7599 29.2347 37.7652 29.4C37.7759 29.5653 37.7839 29.7467 37.7892 29.944C37.7945 30.136 37.7972 30.3333 37.7972 30.536V34H37.1332V28.288H38.1972L39.9572 32.968H39.9892L41.7812 28.288H42.8372V34H42.1252V30.488C42.1252 30.3013 42.1279 30.1173 42.1332 29.936C42.1385 29.7493 42.1465 29.576 42.1572 29.416C42.1679 29.2507 42.1759 29.112 42.1812 29H42.1492L40.2452 34H39.6532ZM48.535 34L47.847 32.232H45.583L44.903 34H44.175L46.407 28.264H47.055L49.279 34H48.535ZM46.991 29.864C46.975 29.8213 46.9483 29.744 46.911 29.632C46.8737 29.52 46.8363 29.4053 46.799 29.288C46.767 29.1653 46.7403 29.072 46.719 29.008C46.6923 29.1147 46.663 29.224 46.631 29.336C46.6043 29.4427 46.575 29.5413 46.543 29.632C46.5163 29.7227 46.4923 29.8 46.471 29.864L45.823 31.592H47.631L46.991 29.864ZM52.9441 30.984H54.9201V33.784C54.6108 33.8853 54.2988 33.96 53.9841 34.008C53.6695 34.056 53.3121 34.08 52.9121 34.08C52.3201 34.08 51.8215 33.9627 51.4161 33.728C51.0108 33.488 50.7015 33.1493 50.4881 32.712C50.2801 32.2693 50.1761 31.7467 50.1761 31.144C50.1761 30.5467 50.2935 30.0293 50.5281 29.592C50.7628 29.1547 51.0988 28.816 51.5361 28.576C51.9788 28.3307 52.5121 28.208 53.1361 28.208C53.4561 28.208 53.7575 28.2373 54.0401 28.296C54.3281 28.3547 54.5948 28.4373 54.8401 28.544L54.5681 29.168C54.3655 29.0773 54.1361 29 53.8801 28.936C53.6295 28.872 53.3681 28.84 53.0961 28.84C52.6428 28.84 52.2535 28.9333 51.9281 29.12C51.6028 29.3067 51.3548 29.5733 51.1841 29.92C51.0135 30.2613 50.9281 30.6693 50.9281 31.144C50.9281 31.5973 51.0001 32 51.1441 32.352C51.2935 32.6987 51.5255 32.9707 51.8401 33.168C52.1548 33.36 52.5681 33.456 53.0801 33.456C53.2508 33.456 53.4001 33.4507 53.5281 33.44C53.6615 33.424 53.7815 33.4053 53.8881 33.384C54.0001 33.3627 54.1041 33.3413 54.2001 33.32V31.624H52.9441V30.984ZM60.0364 34H56.8444V28.288H60.0364V28.92H57.5644V30.704H59.8924V31.328H57.5644V33.368H60.0364V34Z" fill="white"/>
<defs>
<linearGradient id="paint0_linear_1189_1773" x1="55.5769" y1="-27.9476" x2="14.9587" y2="133.944" gradientUnits="userSpaceOnUse">
<stop stop-color="#8BB3FF"/>
<stop offset="1" stop-color="#80ABFF" stop-opacity="0"/>
</linearGradient>
<linearGradient id="paint1_linear_1189_1773" x1="66.6923" y1="-25.7495" x2="15.6273" y2="134.374" gradientUnits="userSpaceOnUse">
<stop stop-color="#A9C1F0"/>
<stop offset="1" stop-color="#A9C2F2" stop-opacity="0"/>
</linearGradient>
<linearGradient id="paint2_linear_1189_1773" x1="3.92353" y1="70.3401" x2="3.92353" y2="109.278" gradientUnits="userSpaceOnUse">
<stop stop-color="white"/>
<stop offset="0.692708" stop-color="white" stop-opacity="0"/>
</linearGradient>
<linearGradient id="paint3_linear_1189_1773" x1="60.2237" y1="0" x2="60.2237" y2="117.956" gradientUnits="userSpaceOnUse">
<stop stop-color="white"/>
<stop offset="0.692708" stop-color="white" stop-opacity="0"/>
</linearGradient>
<linearGradient id="paint4_linear_1189_1773" x1="1.35817e-08" y1="26.4829" x2="11.1154" y2="26.4829" gradientUnits="userSpaceOnUse">
<stop stop-color="#A4C8FF"/>
<stop offset="0.317708" stop-color="#D7E7FF" stop-opacity="0.437964"/>
<stop offset="0.572917" stop-color="white" stop-opacity="0.54"/>
<stop offset="0.848958" stop-color="white" stop-opacity="0"/>
</linearGradient>
</defs>
</svg>
