<svg width="160" height="160" viewBox="0 0 160 160" fill="none" xmlns="http://www.w3.org/2000/svg">
<rect width="160" height="160" fill="white"/>
<rect opacity="0.01" x="0.5" y="0.5" width="159" height="159" stroke="#DCDEE0" stroke-dasharray="5"/>
<path opacity="0.8" fill-rule="evenodd" clip-rule="evenodd" d="M18 50H38V128H21H18H4V70H18V50Z" fill="url(#paint0_linear_689_4902)"/>
<path opacity="0.8" fill-rule="evenodd" clip-rule="evenodd" d="M21 32.8261C20.5185 32.9398 20.0163 33 19.5 33C15.9101 33 13 30.0899 13 26.5C13 23.0731 15.6519 20.2656 19.0155 20.0178C19.0052 19.8465 19 19.6739 19 19.5C19 14.8056 22.8056 11 27.5 11C31.3275 11 34.5641 13.5298 35.629 17.0085C35.752 17.0028 35.8756 17 36 17C40.4183 17 44 20.5817 44 25C44 29.4183 40.4183 33 36 33C35.6613 33 35.3276 32.979 35 32.9381V33H21V32.8261Z" fill="url(#paint1_linear_689_4902)"/>
<path opacity="0.8" fill-rule="evenodd" clip-rule="evenodd" d="M98 17.874C97.6804 17.9562 97.3453 18 97 18C94.7909 18 93 16.2091 93 14C93 11.7909 94.7909 10 97 10L97.0224 10.0001C97.0076 9.83536 97 9.66857 97 9.5C97 6.46243 99.4624 4 102.5 4C105.019 4 107.143 5.69353 107.794 8.00416C107.862 8.0014 107.931 8 108 8C110.761 8 113 10.2386 113 13C113 15.7614 110.761 18 108 18C107.658 18 107.323 17.9656 107 17.9V18H98V17.874Z" fill="url(#paint2_linear_689_4902)"/>
<path opacity="0.8" fill-rule="evenodd" clip-rule="evenodd" d="M147.231 12V26H156V103.369H125V26V12H147.231Z" fill="url(#paint3_linear_689_4902)"/>
<path opacity="0.6" d="M133.531 118.509C133.8 117.529 135.19 117.529 135.46 118.509L139.643 133.735C139.818 134.372 139.339 135 138.679 135H130.312C129.652 135 129.173 134.372 129.348 133.735L133.531 118.509Z" fill="url(#paint4_linear_689_4902)"/>
<rect opacity="0.6" x="132.997" y="135" width="2.99747" height="10" fill="url(#paint5_linear_689_4902)"/>
<path opacity="0.6" d="M24.5311 117.509C24.8004 116.529 26.1903 116.529 26.4596 117.509L30.6431 132.735C30.8181 133.372 30.339 134 29.6789 134H21.3118C20.6517 134 20.1727 133.372 20.3476 132.735L24.5311 117.509Z" fill="url(#paint6_linear_689_4902)"/>
<rect opacity="0.6" x="23.9966" y="134" width="2.99747" height="10" fill="url(#paint7_linear_689_4902)"/>
<rect x="44" y="132" width="70" height="7" rx="1" fill="url(#paint8_linear_689_4902)"/>
<path d="M103.438 81.6001C103.438 81.6001 118.449 81.6001 125.001 81.6001C126.658 81.6001 128 82.94 128 84.5969C128 87.2858 128 91.8251 128 98.3785C128 109.857 116.631 114.16 109.769 113.464C102.907 112.768 103.438 81.6001 103.438 81.6001Z" stroke="url(#paint9_linear_689_4902)" stroke-width="8" stroke-linejoin="round"/>
<path d="M110 70C111.105 70 112 70.8954 112 72L112 112C112 123.046 103.046 132 92 132H64C52.9543 132 44 123.046 44 112L44 72C44 70.8954 44.8954 70 46 70L110 70Z" fill="url(#paint10_linear_689_4902)"/>
<mask id="mask0_689_4902" style="mask-type:luminance" maskUnits="userSpaceOnUse" x="44" y="70" width="68" height="62">
<path d="M110 70C111.105 70 112 70.8954 112 72L112 112C112 123.046 103.046 132 92 132H64C52.9543 132 44 123.046 44 112L44 72C44 70.8954 44.8954 70 46 70L110 70Z" fill="white"/>
</mask>
<g mask="url(#mask0_689_4902)">
<rect opacity="0.551437" x="44" y="70" width="68" height="19" fill="url(#paint11_linear_689_4902)"/>
</g>
<path opacity="0.6" d="M59 39C48.6077 50.7105 69.3923 48.0482 59 59" stroke="url(#paint12_linear_689_4902)" stroke-width="6" stroke-linecap="round"/>
<path opacity="0.6" d="M78 39C67.6077 50.7105 88.3923 48.0482 78 59" stroke="url(#paint13_linear_689_4902)" stroke-width="6" stroke-linecap="round"/>
<path opacity="0.6" d="M96 39C85.6077 50.7105 106.392 48.0482 96 59" stroke="url(#paint14_linear_689_4902)" stroke-width="6" stroke-linecap="round"/>
<defs>
<linearGradient id="paint0_linear_689_4902" x1="-0.767601" y1="128" x2="-0.767601" y2="50" gradientUnits="userSpaceOnUse">
<stop stop-color="white" stop-opacity="0.5"/>
<stop offset="1" stop-color="#E0EAFF"/>
</linearGradient>
<linearGradient id="paint1_linear_689_4902" x1="47.8752" y1="32.3304" x2="47.8752" y2="11" gradientUnits="userSpaceOnUse">
<stop stop-color="#DFE7F7" stop-opacity="0.3"/>
<stop offset="1" stop-color="#E4EDFF"/>
</linearGradient>
<linearGradient id="paint2_linear_689_4902" x1="115.5" y1="17.5739" x2="115.5" y2="4" gradientUnits="userSpaceOnUse">
<stop stop-color="#DFE7F7" stop-opacity="0.3"/>
<stop offset="1" stop-color="#E4EDFF"/>
</linearGradient>
<linearGradient id="paint3_linear_689_4902" x1="160.347" y1="103.369" x2="160.347" y2="12" gradientUnits="userSpaceOnUse">
<stop stop-color="white" stop-opacity="0.5"/>
<stop offset="1" stop-color="#E0EAFF"/>
</linearGradient>
<linearGradient id="paint4_linear_689_4902" x1="129" y1="115" x2="129" y2="135" gradientUnits="userSpaceOnUse">
<stop stop-color="#E0E7F7"/>
<stop offset="1" stop-color="#CCDEEF"/>
</linearGradient>
<linearGradient id="paint5_linear_689_4902" x1="135.994" y1="145" x2="135.994" y2="135" gradientUnits="userSpaceOnUse">
<stop stop-color="white"/>
<stop offset="1" stop-color="#CADBEC"/>
</linearGradient>
<linearGradient id="paint6_linear_689_4902" x1="20" y1="114" x2="20" y2="134" gradientUnits="userSpaceOnUse">
<stop stop-color="#E0E7F7"/>
<stop offset="1" stop-color="#CCDEEF"/>
</linearGradient>
<linearGradient id="paint7_linear_689_4902" x1="26.994" y1="144" x2="26.994" y2="134" gradientUnits="userSpaceOnUse">
<stop stop-color="white"/>
<stop offset="1" stop-color="#CADBEC"/>
</linearGradient>
<linearGradient id="paint8_linear_689_4902" x1="114" y1="132" x2="44" y2="132" gradientUnits="userSpaceOnUse">
<stop stop-color="#D5E3FF"/>
<stop offset="1" stop-color="#E3EEFF"/>
</linearGradient>
<linearGradient id="paint9_linear_689_4902" x1="128" y1="87.9174" x2="113.15" y2="87.9174" gradientUnits="userSpaceOnUse">
<stop stop-color="#ECF2FF"/>
<stop offset="1" stop-color="#CEDAEF" stop-opacity="0.838287"/>
</linearGradient>
<linearGradient id="paint10_linear_689_4902" x1="120.5" y1="130.113" x2="120.5" y2="70" gradientUnits="userSpaceOnUse">
<stop stop-color="#CBD9F4"/>
<stop offset="1" stop-color="#E4EDFF"/>
</linearGradient>
<linearGradient id="paint11_linear_689_4902" x1="59.3107" y1="85.0556" x2="99.0773" y2="85.0556" gradientUnits="userSpaceOnUse">
<stop stop-color="white"/>
<stop offset="1" stop-color="#F7F8FA"/>
</linearGradient>
<linearGradient id="paint12_linear_689_4902" x1="55.7878" y1="37.5857" x2="55.7878" y2="59" gradientUnits="userSpaceOnUse">
<stop stop-color="#EFF5FF"/>
<stop offset="1" stop-color="#D9E6FC"/>
</linearGradient>
<linearGradient id="paint13_linear_689_4902" x1="74.7878" y1="37.5857" x2="74.7878" y2="59" gradientUnits="userSpaceOnUse">
<stop stop-color="#EFF5FF"/>
<stop offset="1" stop-color="#D9E6FC"/>
</linearGradient>
<linearGradient id="paint14_linear_689_4902" x1="92.7878" y1="37.5857" x2="92.7878" y2="59" gradientUnits="userSpaceOnUse">
<stop stop-color="#EFF5FF"/>
<stop offset="1" stop-color="#D9E6FC"/>
</linearGradient>
</defs>
</svg>
