<svg width="20" height="20" viewBox="0 0 20 20" fill="none" xmlns="http://www.w3.org/2000/svg">
<path d="M17.3245 16.9084L14.4802 13.8417C15.5843 12.3454 16.1189 10.4461 15.9743 8.53446C15.8296 6.62279 15.0166 4.84403 13.7024 3.56391C12.3882 2.2838 10.6728 1.59963 8.90877 1.6521C7.14476 1.70457 5.46629 2.48968 4.21847 3.84599C2.97066 5.20231 2.24836 7.02674 2.20009 8.94415C2.15182 10.8615 2.78125 12.7262 3.95896 14.1546C5.13667 15.5831 6.77313 16.4668 8.53186 16.6241C10.2906 16.7813 12.0379 16.2001 13.4145 15L16.2359 18.0667C16.3071 18.1448 16.3919 18.2068 16.4854 18.2491C16.5788 18.2914 16.679 18.3132 16.7802 18.3132C16.8814 18.3132 16.9816 18.2914 17.075 18.2491C17.1685 18.2068 17.2533 18.1448 17.3245 18.0667C17.4627 17.9113 17.54 17.7037 17.54 17.4875C17.54 17.2714 17.4627 17.0638 17.3245 16.9084ZM9.11353 15C8.0521 15 7.01452 14.6579 6.13197 14.0169C5.24943 13.376 4.56157 12.4649 4.15538 11.399C3.74919 10.3331 3.64291 9.16024 3.84999 8.02868C4.05706 6.89713 4.56818 5.85773 5.31873 5.04192C6.06927 4.22611 7.02552 3.67054 8.06655 3.44546C9.10758 3.22038 10.1866 3.3359 11.1673 3.77741C12.1479 4.21892 12.9861 4.9666 13.5757 5.92588C14.1654 6.88517 14.4802 8.01299 14.4802 9.16671C14.4802 10.7138 13.9148 12.1975 12.9083 13.2915C11.9019 14.3855 10.5369 15 9.11353 15Z" fill="white"/>
</svg>
