<svg width="32" height="32" viewBox="0 0 32 32" fill="none" xmlns="http://www.w3.org/2000/svg">
<path d="M25.9841 1H5.76583C3.13282 1 1 3.15249 1 5.80517V26.1948C1 28.8475 3.13282 31 5.76583 31H25.9841C28.6171 31 30.7471 28.8475 30.7471 26.1948V5.80517C30.7499 3.14968 28.6171 1 25.9841 1Z" fill="#1677FF"/>
<path d="M25.4923 19.8385C24.3037 19.4367 22.7048 18.8213 20.926 18.1722C21.9938 16.2979 22.8481 14.165 23.4101 11.8468H17.5455V9.71674H24.728V8.52809H17.5455V4.9762H14.6147C14.1004 4.9762 14.1004 5.48763 14.1004 5.48763V8.52528H6.83646V9.71393H14.1004V11.8439H8.10098V13.0326H19.7346C19.3102 14.5107 18.737 15.9016 18.0598 17.1634C14.2859 15.9073 10.2563 14.89 7.72725 15.5167C6.10866 15.9185 5.06614 16.6351 4.45355 17.3882C1.64351 20.8361 3.65831 26.074 9.59311 26.074C13.1029 26.074 16.4833 24.1013 19.1023 20.8501C23.0111 22.7441 30.7471 25.9981 30.7471 25.9981V21.3615C30.7499 21.3615 29.7776 21.2829 25.4923 19.8385ZM9.03954 24.0704C4.4114 24.0704 3.04291 20.3949 5.33028 18.3829C6.09461 17.7029 7.4884 17.3713 8.23025 17.2982C10.9785 17.0257 13.5244 18.0822 16.5283 19.5603C14.418 22.3366 11.7287 24.0704 9.03954 24.0704Z" fill="white"/>
</svg>
