<svg width="280" height="400" viewBox="0 0 280 400" fill="none" xmlns="http://www.w3.org/2000/svg">
<path d="M0 9.99999C0 4.47714 4.47715 0 10 0H280V400H10C4.47715 400 0 395.523 0 390V9.99999Z" fill="#1264E0"/>
<mask id="mask0_739_8017" style="mask-type:alpha" maskUnits="userSpaceOnUse" x="0" y="0" width="280" height="400">
<path d="M0 9.99999C0 4.47714 4.47715 0 10 0H280V400H10C4.47715 400 0 395.523 0 390V9.99999Z" fill="#1264E0"/>
</mask>
<g mask="url(#mask0_739_8017)">
<path d="M97.3184 317.808C97.3253 317.762 97.3253 317.714 97.3184 317.668C97.7115 315.408 98.0484 313.133 98.3292 310.831C102.302 315.253 105.756 316.376 108.227 316.376C108.489 316.391 108.751 316.391 109.013 316.376C113.856 315.899 117.942 311.154 119.963 303.741C120.003 303.595 120.011 303.441 119.987 303.291C119.963 303.141 119.907 302.998 119.823 302.871C119.649 302.605 119.385 302.41 119.079 302.323C115.648 301.385 112.051 301.219 108.548 301.838C105.044 302.457 101.722 303.845 98.8206 305.903C98.989 303.741 99.0873 301.579 99.1154 299.403C99.8988 299.54 100.693 299.611 101.488 299.614C109.49 299.614 114.446 292.496 114.685 292.145C114.774 292.01 114.829 291.854 114.843 291.692C114.858 291.531 114.832 291.368 114.769 291.219C114.704 291.055 114.605 290.907 114.479 290.783C114.354 290.66 114.204 290.564 114.039 290.503C109.041 288.621 104.984 288.453 101.993 290.025C100.09 291.06 98.6284 292.752 97.88 294.784C95.7652 290.177 92.5619 286.153 88.5461 283.059C84.5302 279.966 79.8223 277.895 74.828 277.025C74.6852 276.991 74.5364 276.992 74.3938 277.026C74.2513 277.061 74.119 277.13 74.008 277.226C73.8969 277.321 73.8103 277.442 73.7551 277.578C73.7 277.714 73.6779 277.862 73.6908 278.008C74.1962 285.266 75.5439 294.125 81.5245 298.364C83.9174 300.004 86.7676 300.844 89.6672 300.765C92.1469 300.711 94.6077 300.319 96.9815 299.6C96.8569 304.773 96.3879 309.932 95.5776 315.043C92.2503 311.266 83.7848 302.871 72.2308 299.979C72.1023 299.939 71.9667 299.927 71.8333 299.945C71.6999 299.963 71.572 300.009 71.4585 300.081C71.3449 300.154 71.2484 300.25 71.1757 300.363C71.103 300.476 71.0558 300.604 71.0374 300.737C70.1811 306.984 71.6692 312.052 75.3193 315.394C78.3517 318.201 82.7038 319.605 87.9544 319.605C90.2841 319.584 92.6065 319.339 94.8897 318.875C94.1035 323.157 93.1348 327.299 92.0819 331.342C88.4458 328.45 77.9306 321.136 67.9067 324.182C67.7743 324.225 67.6535 324.299 67.5538 324.396C67.454 324.493 67.3778 324.612 67.3311 324.744C67.2832 324.884 67.2659 325.033 67.2804 325.181C67.295 325.329 67.341 325.472 67.4154 325.6C71.1217 332.507 74.828 336.34 79.0537 337.673C80.1538 338.015 81.299 338.191 82.4511 338.193C85.4321 338.069 88.3318 337.184 90.8745 335.624C89.2881 340.93 87.5473 345.872 85.8345 350.28C82.9708 347.606 79.4831 345.691 75.6896 344.71C71.8961 343.729 67.9173 343.714 64.1162 344.665C63.996 344.691 63.8824 344.741 63.7821 344.813C63.6819 344.884 63.5971 344.975 63.5328 345.08C63.4685 345.185 63.4262 345.301 63.4082 345.423C63.3903 345.545 63.3971 345.669 63.4283 345.788C64.0164 348.064 65.127 350.172 66.6721 351.943C68.2172 353.715 70.1541 355.102 72.329 355.994C73.9181 356.652 75.6211 356.991 77.3409 356.991C79.616 356.974 81.8488 356.374 83.8269 355.25C81.5881 360.719 79.0622 366.066 76.2599 371.269C76.1406 371.528 76.1219 371.823 76.2075 372.095C76.2931 372.367 76.4769 372.598 76.7232 372.743C76.9069 372.863 77.1216 372.926 77.3409 372.925C77.5045 372.93 77.6663 372.891 77.8096 372.812C77.9528 372.733 78.0722 372.617 78.1552 372.476C81.553 366.106 84.5765 359.543 87.2103 352.821C87.2647 352.714 87.307 352.601 87.3367 352.485C87.8608 351.165 88.3802 349.803 88.895 348.399C92.2784 352.302 96.3918 354.464 100.519 354.464C100.969 354.464 101.404 354.464 101.853 354.464C104.141 354.236 106.302 353.303 108.037 351.794C109.772 350.285 110.996 348.275 111.54 346.041C111.579 345.789 111.538 345.531 111.422 345.304C111.306 345.077 111.121 344.893 110.894 344.777C107.799 343.042 104.337 342.065 100.791 341.926C97.2453 341.787 93.7171 342.49 90.4954 343.977C91.6045 340.762 92.6855 337.351 93.6823 333.813C93.7711 333.669 93.8196 333.504 93.8227 333.335C94.0894 332.339 94.3702 331.342 94.6229 330.317C98.6802 334.725 102.429 336.887 106.037 336.887C110.417 336.887 114.46 333.644 118.349 327.06C118.454 326.815 118.471 326.541 118.397 326.285C118.322 326.029 118.162 325.807 117.942 325.656C109.785 320.041 100.028 323.873 95.6758 326.119C96.2935 323.489 96.8364 320.813 97.3044 318.089L97.3184 317.808Z" fill="#1254B7"/>
<path d="M46.4123 346.265C47.9259 346.74 49.5009 346.991 51.0873 347.009C53.1012 347 55.09 346.56 56.9206 345.721C58.7512 344.881 60.3814 343.66 61.7024 342.14C63.0233 340.62 64.0046 338.835 64.5805 336.905C65.1564 334.975 65.3138 332.944 65.042 330.949C64.9947 330.731 64.8678 330.538 64.6861 330.408C64.5045 330.278 64.281 330.221 64.0593 330.247C60.1787 330.676 56.4421 331.963 53.1204 334.015C49.7987 336.067 46.975 338.832 44.854 342.11C43.085 337.252 41.4284 332.086 40.0386 326.737C42.3073 328.079 44.8737 328.836 47.5073 328.941C48.5898 328.945 49.6659 328.774 50.6942 328.436C56.1553 326.625 59.9037 320.111 63.1467 313.33C63.2053 313.207 63.2357 313.073 63.2357 312.937C63.2357 312.801 63.2053 312.666 63.1467 312.544C63.0989 312.422 63.0233 312.312 62.9258 312.224C62.8283 312.137 62.7117 312.073 62.5852 312.038C51.9015 308.992 42.1865 319.437 39.126 323.171C38.0541 318.643 37.2292 314.059 36.6552 309.441C38.9183 309.874 41.2162 310.099 43.5203 310.115C49.1358 310.115 53.5722 308.627 56.5765 305.693C60.1424 302.225 61.3638 297.031 60.1284 290.685C60.1045 290.562 60.055 290.446 59.9831 290.344C59.9112 290.242 59.8185 290.156 59.711 290.093C59.6036 290.029 59.4839 289.989 59.3599 289.975C59.2358 289.961 59.1102 289.973 58.9912 290.011C47.5916 293.044 39.5472 301.523 36.2621 305.538C36.2621 304.71 36.1217 303.882 36.0655 303.053C36.0486 302.845 35.9649 302.648 35.8269 302.492C35.5424 300.936 34.9129 299.464 33.9849 298.184C33.0569 296.904 31.8538 295.848 30.464 295.093C27.3474 293.549 23.2339 293.774 18.2641 295.753C18.117 295.81 17.9843 295.899 17.8751 296.013C17.766 296.127 17.6831 296.263 17.6324 296.413C17.5821 296.557 17.5674 296.712 17.5893 296.864C17.6113 297.015 17.6694 297.159 17.7587 297.283C18.0114 297.62 23.3743 304.668 31.4046 304.668C32.2717 304.665 33.1366 304.581 33.9878 304.415C34.1563 306.699 34.3949 308.987 34.7038 311.28C31.6782 309.223 28.2397 307.852 24.629 307.263C21.0182 306.674 17.3223 306.881 13.7997 307.869C13.6609 307.903 13.5306 307.966 13.4171 308.053C13.3035 308.14 13.2092 308.249 13.1399 308.374C13.0695 308.494 13.0244 308.626 13.0075 308.764C12.9906 308.902 13.0022 309.041 13.0416 309.174C15.5265 316.727 19.9488 321.486 24.8905 321.894C25.1149 321.908 25.34 321.908 25.5644 321.894C28.0914 321.894 31.5871 320.742 35.3917 316.082C36.3218 321.334 37.5404 326.532 39.0418 331.651C34.5213 329.433 24.3009 325.614 16.2987 331.426C16.1856 331.497 16.0879 331.591 16.0111 331.7C15.9343 331.809 15.8799 331.933 15.8512 332.064C15.8225 332.194 15.8199 332.329 15.8437 332.461C15.8675 332.592 15.9172 332.718 15.9898 332.83C20.2998 339.47 24.5396 342.657 28.9478 342.657H29.0601C32.7243 342.657 36.4165 340.369 40.2913 335.806C41.8777 340.804 43.6185 345.549 45.4015 349.958C40.9652 347.051 35.7707 347.515 29.369 351.361C29.2302 351.45 29.1121 351.567 29.0224 351.705C28.9328 351.843 28.8739 351.999 28.8495 352.162C28.8324 352.315 28.8543 352.47 28.9132 352.612C28.9721 352.755 29.0661 352.88 29.1865 352.976C29.5094 353.229 34.9705 357.342 41.0775 357.342C43.4223 357.365 45.7203 356.685 47.6758 355.391C51.1309 363.422 55.1126 371.217 59.5949 378.723C59.6845 378.865 59.8092 378.98 59.9569 379.059C60.1045 379.138 60.27 379.177 60.4372 379.173C60.6632 379.175 60.8841 379.106 61.069 378.976C61.3157 378.825 61.4934 378.583 61.5643 378.302C61.6351 378.021 61.5934 377.724 61.448 377.474C55.5717 367.51 50.5421 357.071 46.4123 346.265Z" fill="#1254B7"/>
<path d="M85.0186 402.618H51.5778L49.0508 368.04H87.5456L85.0186 402.618Z" fill="#1254B7"/>
<path d="M90.0314 365.709H46.5527V371.564H90.0314V365.709Z" fill="#1254B7"/>
<circle cx="139" cy="168" r="23" fill="#1254B7"/>
<circle cx="139" cy="168" r="14.6364" fill="#2270E7"/>
<path d="M133 169.062L137.727 173L146 164" stroke="#97BCF2" stroke-width="2" stroke-linecap="round" stroke-linejoin="round"/>
<path d="M139.696 200.758L146.939 186.121H132.453L139.696 200.758Z" fill="#1254B7"/>
<path d="M145.443 245.256L155.265 243.415C155.422 243.389 155.572 243.329 155.703 243.238C155.834 243.148 155.943 243.029 156.023 242.892C156.103 242.754 156.151 242.6 156.165 242.441C156.179 242.283 156.157 242.123 156.102 241.974L148.378 219.099C148.257 218.769 148.026 218.491 147.723 218.312C147.42 218.134 147.065 218.066 146.718 218.12L136.908 219.948C136.75 219.974 136.599 220.035 136.467 220.126C136.334 220.217 136.224 220.337 136.144 220.476C136.064 220.616 136.016 220.771 136.003 220.932C135.991 221.092 136.014 221.253 136.072 221.403L143.795 244.278C143.912 244.608 144.14 244.887 144.442 245.066C144.743 245.245 145.097 245.312 145.443 245.256Z" fill="#407BFF"/>
<path opacity="0.6" d="M145.443 245.256L155.265 243.415C155.422 243.389 155.572 243.329 155.703 243.238C155.834 243.148 155.943 243.029 156.023 242.892C156.103 242.754 156.151 242.6 156.165 242.441C156.179 242.283 156.157 242.123 156.102 241.974L148.378 219.099C148.257 218.769 148.026 218.491 147.723 218.312C147.42 218.134 147.065 218.066 146.718 218.12L136.908 219.948C136.75 219.974 136.599 220.035 136.467 220.126C136.334 220.217 136.224 220.337 136.144 220.476C136.064 220.616 136.016 220.771 136.003 220.932C135.991 221.092 136.014 221.253 136.072 221.403L143.795 244.278C143.912 244.608 144.14 244.887 144.442 245.066C144.743 245.245 145.097 245.312 145.443 245.256Z" fill="black"/>
<path d="M146.652 245.076L156.461 243.248C156.619 243.222 156.77 243.162 156.903 243.07C157.035 242.979 157.145 242.859 157.225 242.72C157.305 242.581 157.353 242.425 157.366 242.265C157.378 242.105 157.355 241.944 157.297 241.793L149.574 218.918C149.453 218.588 149.221 218.311 148.918 218.132C148.616 217.954 148.26 217.886 147.913 217.94L138.104 219.781C137.946 219.805 137.795 219.864 137.663 219.954C137.53 220.044 137.42 220.163 137.34 220.301C137.259 220.439 137.211 220.594 137.199 220.754C137.186 220.913 137.21 221.073 137.267 221.223L144.991 244.098C145.112 244.428 145.343 244.706 145.646 244.884C145.949 245.062 146.304 245.13 146.652 245.076Z" fill="#407BFF"/>
<path opacity="0.3" d="M146.652 245.076L156.461 243.248C156.619 243.222 156.77 243.162 156.903 243.07C157.035 242.979 157.145 242.859 157.225 242.72C157.305 242.581 157.353 242.425 157.366 242.265C157.378 242.105 157.355 241.944 157.297 241.793L149.574 218.918C149.453 218.588 149.221 218.311 148.918 218.132C148.616 217.954 148.26 217.886 147.913 217.94L138.104 219.781C137.946 219.805 137.795 219.864 137.663 219.954C137.53 220.044 137.42 220.163 137.34 220.301C137.259 220.439 137.211 220.594 137.199 220.754C137.186 220.913 137.21 221.073 137.267 221.223L144.991 244.098C145.112 244.428 145.343 244.706 145.646 244.884C145.949 245.062 146.304 245.13 146.652 245.076Z" fill="black"/>
<path d="M144.464 242.54L156.77 240.236L149.845 219.717L137.525 222.021L144.464 242.54Z" fill="#FAFAFA"/>
<path opacity="0.14" d="M144.464 242.54L156.77 240.236L149.845 219.717L137.525 222.021L144.464 242.54Z" fill="#407BFF"/>
<path d="M137.525 230.89L138.491 228.65L147.759 239.064L139.74 239.682L137.525 230.89Z" fill="#E58A7B"/>
<path d="M218.806 178.459C217.519 184.895 214.713 197.768 219.193 202.081C219.193 202.081 217.442 208.517 205.56 208.517C192.481 208.517 199.304 202.081 199.304 202.081C206.449 200.381 206.255 195.091 205.02 190.122L218.806 178.459Z" fill="#E58A7B"/>
<path d="M192.777 204.282C192.777 203.316 194.245 202.325 196.382 201.553C197.527 201.128 198.647 199.519 200.385 199.223C201.672 199.004 203.333 200.111 204.981 199.995C206.358 199.892 207.8 198.553 209.396 198.541C210.992 198.528 212.28 199.828 213.85 199.918C214.829 199.918 215.807 198.734 216.631 198.811C217.455 198.888 218.343 200.291 219.128 200.433C220.171 200.613 221.342 199.57 222.05 199.802C223.183 200.163 223.338 201.694 223.84 202.106C225.281 203.278 226.414 204.385 225.127 204.591C221.947 205.093 221.819 203.304 218.6 203.304C215.382 203.304 215.382 204.591 212.164 204.526C208.946 204.462 208.959 203.239 205.727 203.239C202.496 203.239 202.561 204.127 199.291 204.462C197.129 204.824 194.916 204.763 192.777 204.282Z" fill="#407BFF"/>
<g opacity="0.6">
<path opacity="0.6" d="M192.777 204.282C192.777 203.316 194.245 202.325 196.382 201.553C197.527 201.128 198.647 199.519 200.385 199.223C201.672 199.004 203.333 200.111 204.981 199.995C206.358 199.892 207.8 198.553 209.396 198.541C210.992 198.528 212.28 199.828 213.85 199.918C214.829 199.918 215.807 198.734 216.631 198.811C217.455 198.888 218.343 200.291 219.128 200.433C220.171 200.613 221.342 199.57 222.05 199.802C223.183 200.163 223.338 201.694 223.84 202.106C225.281 203.278 226.414 204.385 225.127 204.591C221.947 205.093 221.819 203.304 218.6 203.304C215.382 203.304 215.382 204.591 212.164 204.526C208.946 204.462 208.959 203.239 205.727 203.239C202.496 203.239 202.561 204.127 199.291 204.462C197.129 204.824 194.916 204.763 192.777 204.282Z" fill="black"/>
</g>
<path d="M242.182 215.945C243.856 219.485 245.169 222.87 246.495 226.398C247.82 229.925 248.889 233.478 249.919 237.069C250.962 240.697 251.821 244.374 252.493 248.088C252.802 249.955 253.124 251.821 253.33 253.74C253.459 254.679 253.575 255.632 253.639 256.597L253.858 259.558C253.914 262.006 253.476 264.44 252.571 266.715C251.831 268.624 250.949 270.474 249.932 272.251C248.013 275.557 245.862 278.723 243.495 281.725C238.912 287.542 233.885 292.995 228.46 298.035L224.443 294.328C226.567 291.521 228.743 288.638 230.777 285.729C232.811 282.819 234.845 279.91 236.685 276.936C238.531 274.036 240.199 271.027 241.68 267.925C242.362 266.506 242.938 265.039 243.405 263.536C243.783 262.422 243.957 261.249 243.92 260.073L243.598 257.64C243.508 256.803 243.366 255.967 243.199 255.065C242.929 253.392 242.555 251.706 242.182 250.032C241.809 248.359 241.384 246.685 240.895 245.012C240.406 243.338 239.968 241.665 239.453 240.004C238.436 236.683 237.265 233.375 236.055 230.105C234.845 226.835 233.48 223.514 232.193 220.463L242.182 215.945Z" fill="#E58A7B"/>
<path d="M237.793 204.54C242.272 205.518 247.048 221.635 247.048 221.635L229.412 232.886C229.412 232.886 223.877 220.013 226.014 214.4C228.254 208.607 232.502 203.381 237.793 204.54Z" fill="#407BFF"/>
<path opacity="0.6" d="M237.793 204.54C242.272 205.518 247.048 221.635 247.048 221.635L229.412 232.886C229.412 232.886 223.877 220.013 226.014 214.4C228.254 208.607 232.502 203.381 237.793 204.54Z" fill="white"/>
<path opacity="0.28" d="M235.4 210.023L229.375 232.782V232.885L236.429 228.38L235.4 210.023Z" fill="#407BFF"/>
<path d="M181.076 204.848C181.076 204.848 175.927 206.664 186.225 269.921H229.993C229.259 252.105 229.234 241.111 237.717 204.54C231.584 203.274 225.367 202.452 219.116 202.081C212.494 201.617 205.848 201.617 199.227 202.081C190.77 202.866 181.076 204.848 181.076 204.848Z" fill="#407BFF"/>
<path opacity="0.6" d="M181.076 204.848C181.076 204.848 175.927 206.664 186.225 269.921H229.993C229.259 252.105 229.234 241.111 237.717 204.54C231.584 203.274 225.367 202.452 219.116 202.081C212.494 201.617 205.848 201.617 199.227 202.081C190.77 202.866 181.076 204.848 181.076 204.848Z" fill="white"/>
<path d="M226.529 292.886L216.102 289.745L220.453 299.812C220.453 299.812 227.34 300.481 229.824 296.748L226.529 292.886Z" fill="#E58A7B"/>
<path d="M207.658 293.066L211.752 301.292L220.454 299.838L216.103 289.771L207.658 293.066Z" fill="#E58A7B"/>
<path d="M197.797 269.921C197.797 269.921 204.053 343.94 210.554 385.648C215.793 419.336 239.054 498.079 239.054 498.079H253.755C253.755 498.079 241.642 422.026 238.977 388.66C232.245 304.343 244.049 289.423 230.031 269.869L197.797 269.921Z" fill="#407BFF"/>
<path opacity="0.6" d="M197.797 269.921C197.797 269.921 204.053 343.94 210.554 385.648C215.793 419.336 239.054 498.079 239.054 498.079H253.755C253.755 498.079 241.642 422.026 238.977 388.66C232.245 304.343 244.049 289.423 230.031 269.869L197.797 269.921Z" fill="black"/>
<path opacity="0.4" d="M211.16 299.039C211.16 299.039 205.136 317.808 205.226 344.88C206.268 354.032 207.375 363.12 208.508 371.539C211.958 363.687 218.304 340.799 211.16 299.039Z" fill="black"/>
<path d="M186.237 269.921C186.237 269.921 177.728 352.989 178.436 385.867C179.17 420.07 191.708 498.079 191.708 498.079H206.28C206.28 498.079 203.976 422.129 205.263 388.48C206.667 351.856 218.304 269.921 218.304 269.921H186.237Z" fill="#407BFF"/>
<path opacity="0.6" d="M186.237 269.921C186.237 269.921 177.728 352.989 178.436 385.867C179.17 420.07 191.708 498.079 191.708 498.079H206.28C206.28 498.079 203.976 422.129 205.263 388.48C206.667 351.856 218.304 269.921 218.304 269.921H186.237Z" fill="black"/>
<path d="M192.894 167.118C192.811 167.127 192.727 167.117 192.649 167.088C192.571 167.059 192.5 167.012 192.443 166.951C192.03 166.458 191.505 166.071 190.911 165.822C190.318 165.574 189.673 165.471 189.032 165.522C188.897 165.541 188.761 165.505 188.652 165.423C188.544 165.341 188.472 165.219 188.453 165.085C188.437 164.952 188.473 164.819 188.551 164.711C188.63 164.604 188.747 164.53 188.878 164.505C189.686 164.438 190.5 164.562 191.252 164.868C192.003 165.175 192.672 165.655 193.203 166.269C193.294 166.367 193.345 166.495 193.345 166.629C193.345 166.763 193.294 166.892 193.203 166.99C193.115 167.062 193.007 167.107 192.894 167.118Z" fill="#263238"/>
<path d="M190.652 173.516C190.168 175.589 189.402 177.586 188.373 179.45C188.857 179.702 189.39 179.845 189.934 179.87C190.479 179.894 191.023 179.799 191.527 179.592L190.652 173.516Z" fill="#DF5753"/>
<path d="M191.218 171.881C191.333 172.743 190.986 173.503 190.42 173.58C189.853 173.657 189.3 173.027 189.132 172.177C188.965 171.327 189.364 170.542 189.93 170.465C190.497 170.388 191.128 171.07 191.218 171.881Z" fill="#263238"/>
<path d="M190.228 170.594L188.078 170.298C188.078 170.298 189.365 171.688 190.228 170.594Z" fill="#263238"/>
<path opacity="0.28" d="M179.814 215.07V215.327C179.943 222.523 180.934 234.636 183.921 255.001L190.023 231.096L179.814 215.07Z" fill="#407BFF"/>
<path d="M188.476 218.764C187.266 224.878 185.902 230.864 184.28 236.876C182.658 242.888 181.01 248.861 178.873 254.898L178.036 257.151L177.122 259.416C176.917 259.953 176.672 260.474 176.389 260.974C176.034 261.641 175.602 262.263 175.101 262.828C173.934 264.112 172.403 265.01 170.712 265.402C169.297 265.725 167.827 265.725 166.412 265.402C165.334 265.18 164.284 264.834 163.284 264.372C161.625 263.595 160.054 262.641 158.598 261.527C155.997 259.524 153.577 257.298 151.364 254.872C150.257 253.714 149.227 252.504 148.223 251.281C147.219 250.058 146.253 248.835 145.301 247.483L149.381 243.866C153.71 247.775 158.385 251.282 163.349 254.344C164.42 254.968 165.55 255.485 166.721 255.889C167.712 256.262 168.601 256.159 168.253 256.095C168.044 256.124 167.845 256.203 167.674 256.327L167.854 255.773L168.536 253.739L169.18 251.641C170.853 245.99 172.282 240.056 173.698 234.237L177.728 216.524L188.476 218.764Z" fill="#E58A7B"/>
<path d="M145.636 248.024L139.74 239.682L147.76 239.064C147.76 239.064 152.291 244.291 150.695 248.487L145.636 248.024Z" fill="#E58A7B"/>
<path d="M145.148 237.533L146.848 236.49L147.633 232.538L148.933 234.16L149.899 243.441L145.148 237.533Z" fill="#E58A7B"/>
<path d="M219.733 164.827C220.608 175.486 221.2 179.978 216.643 186.183C209.782 195.49 196.484 194.229 192.455 184.033C188.812 174.855 188.001 158.957 197.759 153.267C199.901 152 202.332 151.303 204.819 151.241C207.307 151.18 209.77 151.755 211.972 152.914C214.175 154.073 216.044 155.776 217.402 157.861C218.761 159.946 219.563 162.344 219.733 164.827Z" fill="#E58A7B"/>
<path d="M195.904 152.07C193.723 152.986 191.937 154.644 190.861 156.75C189.784 158.856 189.487 161.274 190.021 163.578C190.021 163.578 198.401 159.961 198.736 173.387C198.98 183.08 192.299 196.159 192.299 196.159C192.299 196.159 207.837 199.377 230.197 192.529C239.71 189.62 235.423 132.516 195.904 152.07Z" fill="#263238"/>
<path d="M195.106 158.004C193.587 161.66 193.986 168.894 199.972 168.122C205.958 167.35 204.207 161.312 204.207 161.312L195.106 158.004Z" fill="#263238"/>
<path d="M201.776 172.447C201.838 174.517 201.084 176.528 199.677 178.047C197.798 180.03 195.442 178.691 194.799 176.168C194.207 173.915 194.477 170.143 196.936 169.088C197.478 168.867 198.066 168.784 198.648 168.848C199.23 168.912 199.786 169.121 200.267 169.455C200.748 169.788 201.138 170.237 201.401 170.76C201.665 171.282 201.793 171.862 201.776 172.447Z" fill="#E58A7B"/>
<path d="M224.727 272.29H225.885C226.13 272.29 226.31 272.174 226.285 272.019L225.731 266.87C225.731 266.728 225.512 266.6 225.268 266.6H224.083C223.852 266.6 223.671 266.728 223.684 266.87L224.238 272.019C224.289 272.199 224.495 272.29 224.727 272.29Z" fill="#407BFF"/>
<path d="M195.943 272.289H197.128C197.359 272.289 197.539 272.174 197.527 272.019L196.973 266.87C196.973 266.728 196.741 266.6 196.51 266.6H195.325C195.081 266.6 194.901 266.728 194.926 266.87L195.48 272.019C195.493 272.199 195.699 272.289 195.943 272.289Z" fill="#407BFF"/>
<path d="M230.687 267.359L232.657 271.221C232.811 271.53 232.451 271.839 231.949 271.839H185.98C185.581 271.839 185.259 271.646 185.233 271.401L184.834 267.539C184.834 267.269 185.156 267.037 185.581 267.037H229.928C230.071 267.018 230.218 267.038 230.351 267.094C230.485 267.151 230.601 267.242 230.687 267.359Z" fill="#407BFF"/>
<path opacity="0.1" d="M230.687 267.359L232.657 271.221C232.811 271.53 232.451 271.839 231.949 271.839H185.98C185.581 271.839 185.259 271.646 185.233 271.401L184.834 267.539C184.834 267.269 185.156 267.037 185.581 267.037H229.928C230.071 267.018 230.218 267.038 230.351 267.094C230.485 267.151 230.601 267.242 230.687 267.359Z" fill="black"/>
<path opacity="0.6" d="M224.727 272.29H225.885C226.13 272.29 226.31 272.174 226.285 272.019L225.731 266.87C225.731 266.728 225.512 266.6 225.268 266.6H224.083C223.852 266.6 223.671 266.728 223.684 266.87L224.238 272.019C224.289 272.199 224.495 272.29 224.727 272.29Z" fill="black"/>
<path opacity="0.6" d="M195.943 272.289H197.128C197.359 272.289 197.539 272.174 197.527 272.019L196.973 266.87C196.973 266.728 196.741 266.6 196.51 266.6H195.325C195.081 266.6 194.901 266.728 194.926 266.87L195.48 272.019C195.493 272.199 195.699 272.289 195.943 272.289Z" fill="black"/>
<path d="M181.075 204.848C176.634 205.981 173.531 224.273 173.531 224.273L190.678 235.923C190.678 235.923 197.565 214.143 194.102 209.212C190.536 204.166 187.563 203.201 181.075 204.848Z" fill="#407BFF"/>
<path opacity="0.6" d="M181.075 204.848C176.634 205.981 173.531 224.273 173.531 224.273L190.678 235.923C190.678 235.923 197.565 214.143 194.102 209.212C190.536 204.166 187.563 203.201 181.075 204.848Z" fill="white"/>
</g>
</svg>
