<svg width="280" height="400" viewBox="0 0 280 400" fill="none" xmlns="http://www.w3.org/2000/svg">
<path d="M0 9.99999C0 4.47714 4.47715 0 10 0H280V400H10C4.47715 400 0 395.523 0 390V9.99999Z" fill="#1264E0"/>
<mask id="mask0_739_8017" style="mask-type:alpha" maskUnits="userSpaceOnUse" x="0" y="0" width="280" height="400">
<path d="M0 9.99999C0 4.47714 4.47715 0 10 0H280V400H10C4.47715 400 0 395.523 0 390V9.99999Z" fill="#1264E0"/>
</mask>
<g mask="url(#mask0_739_8017)">
<path d="M97.3184 317.808C97.3253 317.762 97.3253 317.714 97.3184 317.668C97.7115 315.408 98.0484 313.133 98.3292 310.831C102.302 315.253 105.756 316.376 108.227 316.376C108.489 316.391 108.751 316.391 109.013 316.376C113.856 315.899 117.942 311.154 119.963 303.741C120.003 303.595 120.011 303.441 119.987 303.291C119.963 303.141 119.907 302.998 119.823 302.871C119.649 302.605 119.385 302.41 119.079 302.323C115.648 301.385 112.051 301.219 108.548 301.838C105.044 302.457 101.722 303.845 98.8206 305.903C98.989 303.741 99.0873 301.579 99.1154 299.403C99.8988 299.54 100.693 299.611 101.488 299.614C109.49 299.614 114.446 292.496 114.685 292.145C114.774 292.01 114.829 291.854 114.843 291.692C114.858 291.531 114.832 291.368 114.769 291.219C114.704 291.055 114.605 290.907 114.479 290.783C114.354 290.66 114.204 290.564 114.039 290.503C109.041 288.621 104.984 288.453 101.993 290.025C100.09 291.06 98.6284 292.752 97.88 294.784C95.7652 290.177 92.5619 286.153 88.5461 283.059C84.5302 279.966 79.8223 277.895 74.828 277.025C74.6852 276.991 74.5364 276.992 74.3938 277.026C74.2513 277.061 74.119 277.13 74.008 277.226C73.8969 277.321 73.8103 277.442 73.7551 277.578C73.7 277.714 73.6779 277.862 73.6908 278.008C74.1962 285.266 75.5439 294.125 81.5245 298.364C83.9174 300.004 86.7676 300.844 89.6672 300.765C92.1469 300.711 94.6077 300.319 96.9815 299.6C96.8569 304.773 96.3879 309.932 95.5776 315.043C92.2503 311.266 83.7848 302.871 72.2308 299.979C72.1023 299.939 71.9667 299.927 71.8333 299.945C71.6999 299.963 71.572 300.009 71.4585 300.081C71.3449 300.154 71.2484 300.25 71.1757 300.363C71.103 300.476 71.0558 300.604 71.0374 300.737C70.1811 306.984 71.6692 312.052 75.3193 315.394C78.3517 318.201 82.7038 319.605 87.9544 319.605C90.2841 319.584 92.6065 319.339 94.8897 318.875C94.1035 323.157 93.1348 327.299 92.0819 331.342C88.4458 328.45 77.9306 321.136 67.9067 324.182C67.7743 324.225 67.6535 324.299 67.5538 324.396C67.454 324.493 67.3778 324.612 67.3311 324.744C67.2832 324.884 67.2659 325.033 67.2804 325.181C67.295 325.329 67.341 325.472 67.4154 325.6C71.1217 332.507 74.828 336.34 79.0537 337.673C80.1538 338.015 81.299 338.191 82.4511 338.193C85.4321 338.069 88.3318 337.184 90.8745 335.624C89.2881 340.93 87.5473 345.872 85.8345 350.28C82.9708 347.606 79.4831 345.691 75.6896 344.71C71.8961 343.729 67.9173 343.714 64.1162 344.665C63.996 344.691 63.8824 344.741 63.7821 344.813C63.6819 344.884 63.5971 344.975 63.5328 345.08C63.4685 345.185 63.4262 345.301 63.4082 345.423C63.3903 345.545 63.3971 345.669 63.4283 345.788C64.0164 348.064 65.127 350.172 66.6721 351.943C68.2172 353.715 70.1541 355.102 72.329 355.994C73.9181 356.652 75.6211 356.991 77.3409 356.991C79.616 356.974 81.8488 356.374 83.8269 355.25C81.5881 360.719 79.0622 366.066 76.2599 371.269C76.1406 371.528 76.1219 371.823 76.2075 372.095C76.2931 372.367 76.4769 372.598 76.7232 372.743C76.9069 372.863 77.1216 372.926 77.3409 372.925C77.5045 372.93 77.6663 372.891 77.8096 372.812C77.9528 372.733 78.0722 372.617 78.1552 372.476C81.553 366.106 84.5765 359.543 87.2103 352.821C87.2647 352.714 87.307 352.601 87.3367 352.485C87.8608 351.165 88.3802 349.803 88.895 348.399C92.2784 352.302 96.3918 354.464 100.519 354.464C100.969 354.464 101.404 354.464 101.853 354.464C104.141 354.236 106.302 353.303 108.037 351.794C109.772 350.285 110.996 348.275 111.54 346.041C111.579 345.789 111.538 345.531 111.422 345.304C111.306 345.077 111.121 344.893 110.894 344.777C107.799 343.042 104.337 342.065 100.791 341.926C97.2453 341.787 93.7171 342.49 90.4954 343.977C91.6045 340.762 92.6855 337.351 93.6823 333.813C93.7711 333.669 93.8196 333.504 93.8227 333.335C94.0894 332.339 94.3702 331.342 94.6229 330.317C98.6802 334.725 102.429 336.887 106.037 336.887C110.417 336.887 114.46 333.644 118.349 327.06C118.454 326.815 118.471 326.541 118.397 326.285C118.322 326.029 118.162 325.807 117.942 325.656C109.785 320.041 100.028 323.873 95.6758 326.119C96.2935 323.489 96.8364 320.813 97.3044 318.089L97.3184 317.808Z" fill="#1254B7"/>
<path d="M46.4123 346.265C47.9259 346.74 49.5009 346.991 51.0873 347.009C53.1012 347 55.09 346.56 56.9206 345.721C58.7512 344.881 60.3814 343.66 61.7024 342.14C63.0233 340.62 64.0046 338.835 64.5805 336.905C65.1564 334.975 65.3138 332.944 65.042 330.949C64.9947 330.731 64.8678 330.538 64.6861 330.408C64.5045 330.278 64.281 330.221 64.0593 330.247C60.1787 330.676 56.4421 331.963 53.1204 334.015C49.7987 336.067 46.975 338.832 44.854 342.11C43.085 337.252 41.4284 332.086 40.0386 326.737C42.3073 328.079 44.8737 328.836 47.5073 328.941C48.5898 328.945 49.6659 328.774 50.6942 328.436C56.1553 326.625 59.9037 320.111 63.1467 313.33C63.2053 313.207 63.2357 313.073 63.2357 312.937C63.2357 312.801 63.2053 312.666 63.1467 312.544C63.0989 312.422 63.0233 312.312 62.9258 312.224C62.8283 312.137 62.7117 312.073 62.5852 312.038C51.9015 308.992 42.1865 319.437 39.126 323.171C38.0541 318.643 37.2292 314.059 36.6552 309.441C38.9183 309.874 41.2162 310.099 43.5203 310.115C49.1358 310.115 53.5722 308.627 56.5765 305.693C60.1424 302.225 61.3638 297.031 60.1284 290.685C60.1045 290.562 60.055 290.446 59.9831 290.344C59.9112 290.242 59.8185 290.156 59.711 290.093C59.6036 290.029 59.4839 289.989 59.3599 289.975C59.2358 289.961 59.1102 289.973 58.9912 290.011C47.5916 293.044 39.5472 301.523 36.2621 305.538C36.2621 304.71 36.1217 303.882 36.0655 303.053C36.0486 302.845 35.9649 302.648 35.8269 302.492C35.5424 300.936 34.9129 299.464 33.9849 298.184C33.0569 296.904 31.8538 295.848 30.464 295.093C27.3474 293.549 23.2339 293.774 18.2641 295.753C18.117 295.81 17.9843 295.899 17.8751 296.013C17.766 296.127 17.6831 296.263 17.6324 296.413C17.5821 296.557 17.5674 296.712 17.5893 296.864C17.6113 297.015 17.6694 297.159 17.7587 297.283C18.0114 297.62 23.3743 304.668 31.4046 304.668C32.2717 304.665 33.1366 304.581 33.9878 304.415C34.1563 306.699 34.3949 308.987 34.7038 311.28C31.6782 309.223 28.2397 307.852 24.629 307.263C21.0182 306.674 17.3223 306.881 13.7997 307.869C13.6609 307.903 13.5306 307.966 13.4171 308.053C13.3035 308.14 13.2092 308.249 13.1399 308.374C13.0695 308.494 13.0244 308.626 13.0075 308.764C12.9906 308.902 13.0022 309.041 13.0416 309.174C15.5265 316.727 19.9488 321.486 24.8905 321.894C25.1149 321.908 25.34 321.908 25.5644 321.894C28.0914 321.894 31.5871 320.742 35.3917 316.082C36.3218 321.334 37.5404 326.532 39.0418 331.651C34.5213 329.433 24.3009 325.614 16.2987 331.426C16.1856 331.497 16.0879 331.591 16.0111 331.7C15.9343 331.809 15.8799 331.933 15.8512 332.064C15.8225 332.194 15.8199 332.329 15.8437 332.461C15.8675 332.592 15.9172 332.718 15.9898 332.83C20.2998 339.47 24.5396 342.657 28.9478 342.657H29.0601C32.7243 342.657 36.4165 340.369 40.2913 335.806C41.8777 340.804 43.6185 345.549 45.4015 349.958C40.9652 347.051 35.7707 347.515 29.369 351.361C29.2302 351.45 29.1121 351.567 29.0224 351.705C28.9328 351.843 28.8739 351.999 28.8495 352.162C28.8324 352.315 28.8543 352.47 28.9132 352.612C28.9721 352.755 29.0661 352.88 29.1865 352.976C29.5094 353.229 34.9705 357.342 41.0775 357.342C43.4223 357.365 45.7203 356.685 47.6758 355.391C51.1309 363.422 55.1126 371.217 59.5949 378.723C59.6845 378.865 59.8092 378.98 59.9569 379.059C60.1045 379.138 60.27 379.177 60.4372 379.173C60.6632 379.175 60.8841 379.106 61.069 378.976C61.3157 378.825 61.4934 378.583 61.5643 378.302C61.6351 378.021 61.5934 377.724 61.448 377.474C55.5717 367.51 50.5421 357.071 46.4123 346.265Z" fill="#1254B7"/>
<path d="M85.0186 402.618H51.5778L49.0508 368.04H87.5456L85.0186 402.618Z" fill="#1254B7"/>
<path d="M90.0314 365.709H46.5527V371.564H90.0314V365.709Z" fill="#1254B7"/>
<circle cx="139" cy="168" r="23" fill="#1254B7"/>
<circle cx="139" cy="168" r="14.6364" fill="#2270E7"/>
<path d="M133 169.062L137.727 173L146 164" stroke="#97BCF2" stroke-width="2" stroke-linecap="round" stroke-linejoin="round"/>
<path d="M139.696 200.758L146.939 186.121H132.453L139.696 200.758Z" fill="#1254B7"/>
<path d="M145.443 245.256L155.265 243.415C155.422 243.389 155.572 243.329 155.703 243.238C155.834 243.148 155.943 243.029 156.023 242.892C156.103 242.754 156.151 242.6 156.165 242.441C156.179 242.283 156.157 242.123 156.102 241.974L148.378 219.099C148.257 218.769 148.026 218.491 147.723 218.312C147.42 218.134 147.065 218.066 146.718 218.12L136.908 219.948C136.75 219.974 136.599 220.035 136.467 220.126C136.334 220.217 136.224 220.337 136.144 220.476C136.064 220.616 136.016 220.771 136.003 220.932C135.991 221.092 136.014 221.253 136.072 221.403L143.795 244.278C143.912 244.608 144.14 244.887 144.442 245.066C144.743 245.245 145.097 245.312 145.443 245.256Z" fill="#407BFF"/>
<path opacity="0.6" d="M145.443 245.256L155.265 243.415C155.422 243.389 155.572 243.329 155.703 243.238C155.834 243.148 155.943 243.029 156.023 242.892C156.103 242.754 156.151 242.6 156.165 242.441C156.179 242.283 156.157 242.123 156.102 241.974L148.378 219.099C148.257 218.769 148.026 218.491 147.723 218.312C147.42 218.134 147.065 218.066 146.718 218.12L136.908 219.948C136.75 219.974 136.599 220.035 136.467 220.126C136.334 220.217 136.224 220.337 136.144 220.476C136.064 220.616 136.016 220.771 136.003 220.932C135.991 221.092 136.014 221.253 136.072 221.403L143.795 244.278C143.912 244.608 144.14 244.887 144.442 245.066C144.743 245.245 145.097 245.312 145.443 245.256Z" fill="black"/>
<path d="M146.652 245.076L156.461 243.248C156.619 243.222 156.77 243.162 156.903 243.07C157.035 242.979 157.145 242.859 157.225 242.72C157.305 242.581 157.353 242.425 157.366 242.265C157.378 242.105 157.355 241.944 157.297 241.793L149.574 218.918C149.453 218.588 149.221 218.311 148.918 218.132C148.616 217.954 148.26 217.886 147.913 217.94L138.104 219.781C137.946 219.805 137.795 219.864 137.663 219.954C137.53 220.044 137.42 220.163 137.34 220.301C137.259 220.439 137.211 220.594 137.199 220.754C137.186 220.913 137.21 221.073 137.267 221.223L144.991 244.098C145.112 244.428 145.343 244.706 145.646 244.884C145.949 245.062 146.304 245.13 146.652 245.076Z" fill="#407BFF"/>
<path opacity="0.3" d="M146.652 245.076L156.461 243.248C156.619 243.222 156.77 243.162 156.903 243.07C157.035 242.979 157.145 242.859 157.225 242.72C157.305 242.581 157.353 242.425 157.366 242.265C157.378 242.105 157.355 241.944 157.297 241.793L149.574 218.918C149.453 218.588 149.221 218.311 148.918 218.132C148.616 217.954 148.26 217.886 147.913 217.94L138.104 219.781C137.946 219.805 137.795 219.864 137.663 219.954C137.53 220.044 137.42 220.163 137.34 220.301C137.259 220.439 137.211 220.594 137.199 220.754C137.186 220.913 137.21 221.073 137.267 221.223L144.991 244.098C145.112 244.428 145.343 244.706 145.646 244.884C145.949 245.062 146.304 245.13 146.652 245.076Z" fill="black"/>
<path d="M144.464 242.54L156.77 240.236L149.845 219.717L137.525 222.021L144.464 242.54Z" fill="#FAFAFA"/>
<path opacity="0.14" d="M144.464 242.54L156.77 240.236L149.845 219.717L137.525 222.021L144.464 242.54Z" fill="#407BFF"/>
<path d="M137.525 230.89L138.491 228.65L147.759 239.064L139.74 239.682L137.525 230.89Z" fill="#E58A7B"/>
<path d="M218.806 178.459C217.519 184.895 214.713 197.768 219.193 202.081C219.193 202.081 217.442 208.517 205.56 208.517C192.481 208.517 199.304 202.081 199.304 202.081C206.449 200.381 206.255 195.091 205.02 190.122L218.806 178.459Z" fill="#E58A7B"/>
<path d="M192.777 204.282C192.777 203.316 194.245 202.325 196.382 201.553C197.527 201.128 198.647 199.519 200.385 199.223C201.672 199.004 203.333 200.111 204.981 199.995C206.358 199.892 207.8 198.553 209.396 198.541C210.992 198.528 212.28 199.828 213.85 199.918C214.829 199.918 215.807 198.734 216.631 198.811C217.455 198.888 218.343 200.291 219.128 200.433C220.171 200.613 221.342 199.57 222.05 199.802C223.183 200.163 223.338 201.694 223.84 202.106C225.281 203.278 226.414 204.385 225.127 204.591C221.947 205.093 221.819 203.304 218.6 203.304C215.382 203.304 215.382 204.591 212.164 204.526C208.946 204.462 208.959 203.239 205.727 203.239C202.496 203.239 202.561 204.127 199.291 204.462C197.129 204.824 194.916 204.763 192.777 204.282Z" fill="#407BFF"/>
<g opacity="0.6">
<path opacity="0.6" d="M192.777 204.282C192.777 203.316 194.245 202.325 196.382 201.553C197.527 201.128 198.647 199.519 200.385 199.223C201.672 199.004 203.333 200.111 204.981 199.995C206.358 199.892 207.8 198.553 209.396 198.541C210.992 198.528 212.28 199.828 213.85 199.918C214.829 199.918 215.807 198.734 216.631 198.811C217.455 198.888 218.343 200.291 219.128 200.433C220.171 200.613 221.342 199.57 222.05 199.802C223.183 200.163 223.338 201.694 223.84 202.106C225.281 203.278 226.414 204.385 225.127 204.591C221.947 205.093 221.819 203.304 218.6 203.304C215.382 203.304 215.382 204.591 212.164 204.526C208.946 204.462 208.959 203.239 205.727 203.239C202.496 203.239 202.561 204.127 199.291 204.462C197.129 204.824 194.916 204.763 192.777 204.282Z" fill="black"/>
</g>
<path d="M242.182 215.945C243.856 219.485 245.169 222.87 246.495 226.398C247.82 229.925 248.889 233.478 249.919 237.069C250.962 240.697 251.821 244.374 252.493 248.088C252.802 249.955 253.124 251.821 253.33 253.74C253.459 254.679 253.575 255.632 253.639 256.597L253.858 259.558C253.914 262.006 253.476 264.44 252.571 266.715C251.831 268.624 250.949 270.474 249.932 272.251C248.013 275.557 245.862 278.723 243.495 281.725C238.912 287.542 233.885 292.995 228.46 298.035L224.443 294.328C226.567 291.521 228.743 288.638 230.777 285.729C232.811 282.819 234.845 279.91 236.685 276.936C238.531 274.036 240.199 271.027 241.68 267.925C242.362 266.506 242.938 265.039 243.405 263.536C243.783 262.422 243.957 261.249 243.92 260.073L243.598 257.64C243.508 256.803 243.366 255.967 243.199 255.065C242.929 253.392 242.555 251.706 242.182 250.032C241.809 248.359 241.384 246.685 240.895 245.012C240.406 243.338 239.968 241.665 239.453 240.004C238.436 236.683 237.265 233.375 236.055 230.105C234.845 226.835 233.48 223.514 232.193 220.463L242.182 215.945Z" fill="#E58A7B"/>
<path d="M237.793 204.54C242.272 205.518 247.048 221.635 247.048 221.635L229.412 232.886C229.412 232.886 223.877 220.013 226.014 214.4C228.254 208.607 232.502 203.381 237.793 204.54Z" fill="#407BFF"/>
<path opacity="0.6" d="M237.793 204.54C242.272 205.518 247.048 221.635 247.048 221.635L229.412 232.886C229.412 232.886 223.877 220.013 226.014 214.4C228.254 208.607 232.502 203.381 237.793 204.54Z" fill="white"/>
<path opacity="0.28" d="M235.4 210.023L229.375 232.782V232.885L236.429 228.38L235.4 210.023Z" fill="#407BFF"/>
<path d="M181.076 204.848C181.076 204.848 175.927 206.664 186.225 269.921H229.993C229.259 252.105 229.234 241.111 237.717 204.54C231.584 203.274 225.367 202.452 219.116 202.081C212.494 201.617 205.848 201.617 199.227 202.081C190.77 202.866 181.076 204.848 181.076 204.848Z" fill="#407BFF"/>
<path opacity="0.6" d="M181.076 204.848C181.076 204.848 175.927 206.664 186.225 269.921H229.993C229.259 252.105 229.234 241.111 237.717 204.54C231.584 203.274 225.367 202.452 219.116 202.081C212.494 201.617 205.848 201.617 199.227 202.081C190.77 202.866 181.076 204.848 181.076 204.848Z" fill="white"/>
<path d="M226.529 292.886L216.102 289.745L220.453 299.812C220.453 299.812 227.34 300.481 229.824 296.748L226.529 292.886Z" fill="#E58A7B"/>
<path d="M207.658 293.066L211.752 301.292L220.454 299.838L216.103 289.771L207.658 293.066Z" fill="#E58A7B"/>
<path d="M197.797 269.921C197.797 269.921 204.053 343.94 210.554 385.648C215.793 419.336 239.054 498.079 239.054 498.079H253.755C253.755 498.079 241.642 422.026 238.977 388.66C232.245 304.343 244.049 289.423 230.031 269.869L197.797 269.921Z" fill="#407BFF"/>
<path opacity="0.6" d="M197.797 269.921C197.797 269.921 204.053 343.94 210.554 385.648C215.793 419.336 239.054 498.079 239.054 498.079H253.755C253.755 498.079 241.642 422.026 238.977 388.66C232.245 304.343 244.049 289.423 230.031 269.869L197.797 269.921Z" fill="black"/>
<path opacity="0.4" d="M211.16 299.039C211.16 299.039 205.136 317.808 205.226 344.88C206.268 354.032 207.375 363.12 208.508 371.539C211.958 363.687 218.304 340.799 211.16 299.039Z" fill="black"/>
<path d="M186.237 269.921C186.237 269.921 177.728 352.989 178.436 385.867C179.17 420.07 191.708 498.079 191.708 498.079H206.28C206.28 498.079 203.976 422.129 205.263 388.48C206.667 351.856 218.304 269.921 218.304 269.921H186.237Z" fill="#407BFF"/>
<path opacity="0.6" d="M186.237 269.921C186.237 269.921 177.728 352.989 178.436 385.867C179.17 420.07 191.708 498.079 191.708 498.079H206.28C206.28 498.079 203.976 422.129 205.263 388.48C206.667 351.856 218.304 269.921 218.304 269.921H186.237Z" fill="black"/>
<path d="M192.894 167.118C192.811 167.127 192.727 167.117 192.649 167.088C192.571 167.059 192.5 167.012 192.443 166.951C192.03 166.458 191.505 166.071 190.911 165.822C190.318 165.574 189.673 165.471 189.032 165.522C188.897 165.541 188.761 165.505 188.652 165.423C188.544 165.341 188.472 165.219 188.453 165.085C188.437 164.952 188.473 164.819 188.551 164.711C188.63 164.604 188.747 164.53 188.878 164.505C189.686 164.438 190.5 164.562 191.252 164.868C192.003 165.175 192.672 165.655 193.203 166.269C193.294 166.367 193.345 166.495 193.345 166.629C193.345 166.763 193.294 166.892 193.203 166.99C193.115 167.062 193.007 167.107 192.894 167.118Z" fill="#263238"/>
<path d="M190.652 173.516C190.168 175.589 189.402 177.586 188.373 179.45C188.857 179.702 189.39 179.845 189.934 179.87C190.479 179.894 191.023 179.799 191.527 179.592L190.652 173.516Z" fill="#DF5753"/>
<path d="M191.218 171.881C191.333 172.743 190.986 173.503 190.42 173.58C189.853 173.657 189.3 173.027 189.132 172.177C188.965 171.327 189.364 170.542 189.93 170.465C190.497 170.388 191.128 171.07 191.218 171.881Z" fill="#263238"/>
<path d="M190.228 170.594L188.078 170.298C188.078 170.298 189.365 171.688 190.228 170.594Z" fill="#263238"/>
<path opacity="0.28" d="M179.814 215.07V215.327C179.943 222.523 180.934 234.636 183.921 255.001L190.023 231.096L179.814 215.07Z" fill="#407BFF"/>
<path d="M188.476 218.764C187.266 224.878 185.902 230.864 184.28 236.876C182.658 242.888 181.01 248.861 178.873 254.898L178.036 257.151L177.122 259.416C176.917 259.953 176.672 260.474 176.389 260.974C176.034 261.641 175.602 262.263 175.101 262.828C173.934 264.112 172.403 265.01 170.712 265.402C169.297 265.725 167.827 265.725 166.412 265.402C165.334 265.18 164.284 264.834 163.284 264.372C161.625 263.595 160.054 262.641 158.598 261.527C155.997 259.524 153.577 257.298 151.364 254.872C150.257 253.714 149.227 252.504 148.223 251.281C147.219 250.058 146.253 248.835 145.301 247.483L149.381 243.866C153.71 247.775 158.385 251.282 163.349 254.344C164.42 254.968 165.55 255.485 166.721 255.889C167.712 256.262 168.601 256.159 168.253 256.095C168.044 256.124 167.845 256.203 167.674 256.327L167.854 255.773L168.536 253.739L169.18 251.641C170.853 245.99 172.282 240.056 173.698 234.237L177.728 216.524L188.476 218.764Z" fill="#E58A7B"/>
<path d="M145.636 248.024L139.74 239.682L147.76 239.064C147.76 239.064 152.291 244.291 150.695 248.487L145.636 248.024Z" fill="#E58A7B"/>
<path d="M145.148 237.533L146.848 236.49L147.633 232.538L148.933 234.16L149.899 243.441L145.148 237.533Z" fill="#E58A7B"/>
<path d="M219.733 164.827C220.608 175.486 221.2 179.978 216.643 186.183C209.782 195.49 196.484 194.229 192.455 184.033C188.812 174.855 188.001 158.957 197.759 153.267C199.901 152 202.332 151.303 204.819 151.241C207.307 151.18 209.77 151.755 211.972 152.914C214.175 154.073 216.044 155.776 217.402 157.861C218.761 159.946 219.563 162.344 219.733 164.827Z" fill="#E58A7B"/>
<path d="M195.904 152.07C193.723 152.986 191.937 154.644 190.861 156.75C189.784 158.856 189.487 161.274 190.021 163.578C190.021 163.578 198.401 159.961 198.736 173.387C198.98 183.08 192.299 196.159 192.299 196.159C192.299 196.159 207.837 199.377 230.197 192.529C239.71 189.62 235.423 132.516 195.904 152.07Z" fill="#263238"/>
<path d="M195.106 158.004C193.587 161.66 193.986 168.894 199.972 168.122C205.958 167.35 204.207 161.312 204.207 161.312L195.106 158.004Z" fill="#263238"/>
<path d="M201.776 172.447C201.838 174.517 201.084 176.528 199.677 178.047C197.798 180.03 195.442 178.691 194.799 176.168C194.207 173.915 194.477 170.143 196.936 169.088C197.478 168.867 198.066 168.784 198.648 168.848C199.23 168.912 199.786 169.121 200.267 169.455C200.748 169.788 201.138 170.237 201.401 170.76C201.665 171.282 201.793 171.862 201.776 172.447Z" fill="#E58A7B"/>
<path d="M224.727 272.29H225.885C226.13 272.29 226.31 272.174 226.285 272.019L225.731 266.87C225.731 266.728 225.512 266.6 225.268 266.6H224.083C223.852 266.6 223.671 266.728 223.684 266.87L224.238 272.019C224.289 272.199 224.495 272.29 224.727 272.29Z" fill="#407BFF"/>
<path d="M195.943 272.289H197.128C197.359 272.289 197.539 272.174 197.527 272.019L196.973 266.87C196.973 266.728 196.741 266.6 196.51 266.6H195.325C195.081 266.6 194.901 266.728 194.926 266.87L195.48 272.019C195.493 272.199 195.699 272.289 195.943 272.289Z" fill="#407BFF"/>
<path d="M230.687 267.359L232.657 271.221C232.811 271.53 232.451 271.839 231.949 271.839H185.98C185.581 271.839 185.259 271.646 185.233 271.401L184.834 267.539C184.834 267.269 185.156 267.037 185.581 267.037H229.928C230.071 267.018 230.218 267.038 230.351 267.094C230.485 267.151 230.601 267.242 230.687 267.359Z" fill="#407BFF"/>
<path opacity="0.1" d="M230.687 267.359L232.657 271.221C232.811 271.53 232.451 271.839 231.949 271.839H185.98C185.581 271.839 185.259 271.646 185.233 271.401L184.834 267.539C184.834 267.269 185.156 267.037 185.581 267.037H229.928C230.071 267.018 230.218 267.038 230.351 267.094C230.485 267.151 230.601 267.242 230.687 267.359Z" fill="black"/>
<path opacity="0.6" d="M224.727 272.29H225.885C226.13 272.29 226.31 272.174 226.285 272.019L225.731 266.87C225.731 266.728 225.512 266.6 225.268 266.6H224.083C223.852 266.6 223.671 266.728 223.684 266.87L224.238 272.019C224.289 272.199 224.495 272.29 224.727 272.29Z" fill="black"/>
<path opacity="0.6" d="M195.943 272.289H197.128C197.359 272.289 197.539 272.174 197.527 272.019L196.973 266.87C196.973 266.728 196.741 266.6 196.51 266.6H195.325C195.081 266.6 194.901 266.728 194.926 266.87L195.48 272.019C195.493 272.199 195.699 272.289 195.943 272.289Z" fill="black"/>
<path d="M181.075 204.848C176.634 205.981 173.531 224.273 173.531 224.273L190.678 235.923C190.678 235.923 197.565 214.143 194.102 209.212C190.536 204.166 187.563 203.201 181.075 204.848Z" fill="#407BFF"/>
<path opacity="0.6" d="M181.075 204.848C176.634 205.981 173.531 224.273 173.531 224.273L190.678 235.923C190.678 235.923 197.565 214.143 194.102 209.212C190.536 204.166 187.563 203.201 181.075 204.848Z" fill="white"/>
<path d="M35.936 44.192V46.736H43.568V44.192H35.936ZM42.8 44.192V44.792C41.936 51.488 39.152 57.536 35.336 60.296C35.96 60.776 36.824 61.784 37.256 62.456C41.576 58.952 44.432 52.88 45.488 44.696L43.736 44.096L43.256 44.192H42.8ZM35.864 49.376C38.432 52.88 41.624 57.632 42.968 60.632L45.2 58.688C43.808 55.76 40.448 51.2 37.88 47.792L35.864 49.376ZM48.32 45.008V47.6H55.832V45.008H48.32ZM47.48 41.672C47.096 45.272 46.304 48.704 44.72 50.792C45.344 51.152 46.52 51.992 47 52.448C48.704 50 49.688 46.16 50.192 42.008L47.48 41.672ZM55.28 45.008V45.416C54.992 47.24 54.392 49.496 53.888 50.888L56.12 51.632C56.84 50.048 57.584 47.624 58.088 45.416L56.144 44.912L55.712 45.008H55.28ZM52.088 50.696L49.736 51.008C50.696 57.2 52.424 61.856 56.696 64.16C57.104 63.416 57.944 62.288 58.568 61.736C54.656 59.96 52.88 55.784 52.088 50.696ZM49.664 48.728V50.528C49.664 53.768 49.136 58.76 43.424 62.168C44.072 62.624 45.032 63.56 45.464 64.184C51.752 60.272 52.376 54.416 52.376 50.576V48.728H49.664ZM65.48 49.832H60.008V52.496H62.672V59.816H65.48V49.832ZM60.272 44.504C61.76 45.488 63.608 46.904 64.424 47.912L66.296 45.992C65.384 44.984 63.488 43.664 62.024 42.8L60.272 44.504ZM64.52 58.736C63.2 58.736 61.304 59.936 59.672 61.592L61.52 64.208C62.552 62.768 63.704 61.28 64.448 61.28C64.976 61.28 65.768 62 66.752 62.576C68.384 63.512 70.328 63.824 73.28 63.824C75.824 63.824 79.64 63.68 81.44 63.56C81.488 62.768 81.92 61.376 82.256 60.608C79.784 60.968 75.848 61.184 73.376 61.184C70.784 61.184 68.672 61.04 67.112 60.08C65.84 59.36 65.264 58.736 64.52 58.736ZM73.64 43.088V60.44H76.232V45.512H80.264V43.088H73.64ZM78.8 43.088V55.28C78.8 55.544 78.704 55.64 78.44 55.64C78.176 55.664 77.336 55.664 76.544 55.64C76.88 56.264 77.24 57.344 77.336 58.04C78.752 58.04 79.76 58.016 80.48 57.608C81.248 57.176 81.44 56.504 81.44 55.328V43.088H78.8ZM71.936 41.648C70.808 42.488 69.008 43.424 67.352 44.024C67.688 44.6 68.072 45.512 68.216 46.088C70.016 45.536 72.152 44.744 73.904 43.808L71.936 41.648ZM67.256 58.352C67.808 57.992 68.696 57.632 73.328 56.36C73.232 55.736 73.16 54.584 73.184 53.792L68.168 55.016L67.016 55.928L67.256 58.352ZM67.256 58.352C67.256 57.416 70.04 55.592 70.04 55.592V44.024H67.352V53.96C67.352 55.136 66.536 55.952 65.984 56.288C66.416 56.744 67.064 57.776 67.256 58.352ZM93.848 41.624C93.152 43.688 91.88 45.728 90.368 47.024C90.968 47.432 92 48.344 92.456 48.824C94.088 47.264 95.6 44.816 96.488 42.272L93.848 41.624ZM93.776 48.416C93.152 49.904 92 51.416 90.776 52.4C91.376 52.808 92.432 53.624 92.888 54.104C94.184 52.904 95.552 51.008 96.392 49.16L93.776 48.416ZM94.256 43.568L93.296 45.992H103.832V43.568H94.256ZM97.352 46.568V52.808C97.352 53.048 97.256 53.12 96.968 53.144C96.68 53.144 95.672 53.144 94.76 53.12C95.12 53.792 95.528 54.848 95.648 55.592C97.112 55.592 98.216 55.568 99.032 55.184C99.92 54.776 100.112 54.104 100.112 52.88V46.568H97.352ZM100.64 49.472C101.72 50.912 102.92 52.904 103.424 54.176L105.848 52.88C105.296 51.632 104.096 49.784 102.944 48.392L100.64 49.472ZM103.088 43.568V43.904C102.752 45.2 102.128 46.808 101.648 47.792L104.096 48.296C104.672 47.192 105.416 45.464 105.968 43.928L103.952 43.496L103.496 43.568H103.088ZM89.168 41.504C87.896 44.024 85.76 46.52 83.576 48.08C84.104 48.632 84.992 49.832 85.304 50.408C87.68 48.488 90.176 45.416 91.712 42.368L89.168 41.504ZM87.032 46.64V55.712H89.792V43.952L89.72 43.928L87.032 46.64ZM89.048 56.72V60.344C89.048 62.936 89.912 63.728 93.344 63.728C94.04 63.728 97.28 63.728 98 63.728C100.736 63.728 101.576 62.912 101.912 59.528C101.144 59.384 99.896 58.952 99.296 58.496C99.152 60.8 98.96 61.112 97.784 61.112C96.944 61.112 94.256 61.112 93.608 61.112C92.192 61.112 91.952 61.016 91.952 60.272V56.72H89.048ZM92.888 55.952C94.064 57.176 95.408 58.904 95.912 60.056L98.312 58.664C97.712 57.488 96.296 55.856 95.072 54.704L92.888 55.952ZM100.904 57.128C101.96 58.904 102.992 61.28 103.304 62.792L106.04 61.688C105.656 60.128 104.528 57.872 103.448 56.12L100.904 57.128ZM86.096 56.648C85.568 58.376 84.68 60.488 83.792 61.904L86.504 63.176C87.272 61.688 88.088 59.408 88.664 57.704L86.096 56.648ZM114.92 48.032V50.432H123.296V48.032H114.92ZM108.392 61.232V63.656H129.632V61.232H108.392ZM109.256 42.512V44.84H116.72V42.512H109.256ZM115.88 42.512V43.016C114.56 46.616 110.984 50 107.408 51.536C107.984 52.064 108.776 53.048 109.16 53.696C113.24 51.68 117.056 48.152 118.808 43.328L116.888 42.392L116.384 42.512H115.88ZM121.352 41.696L118.808 42.488C120.824 47.408 124.16 51.416 128.72 53.528C129.176 52.76 130.04 51.632 130.688 51.08C126.392 49.376 123.032 45.776 121.352 41.696ZM108.944 46.928C110 47.624 111.296 48.632 111.896 49.352L113.504 47.6C112.88 46.88 111.56 45.944 110.504 45.344L108.944 46.928ZM125.048 41.84C124.136 42.896 122.552 44.288 121.4 45.104L123.128 46.448C124.328 45.68 125.888 44.504 127.208 43.376L125.048 41.84ZM127.76 44.648C126.776 45.752 125.096 47.168 123.848 48.032L125.576 49.376C126.848 48.584 128.504 47.336 129.872 46.136L127.76 44.648ZM114.608 54.104H123.032V56.168H114.608V54.104ZM111.704 51.8V58.448H126.128V51.8H111.704ZM113.312 59.072C113.816 59.888 114.296 61.04 114.44 61.76L117.152 60.824C116.96 60.104 116.456 59.024 115.904 58.256L113.312 59.072ZM121.904 58.376C121.616 59.336 120.992 60.68 120.488 61.544L123.008 62.12C123.512 61.328 124.088 60.176 124.712 58.976L121.904 58.376ZM132.464 50.552V53.072H153.632V50.552H132.464ZM141.416 51.968V61.376C141.416 61.712 141.296 61.808 140.912 61.832C140.528 61.856 139.136 61.856 138.008 61.784C138.392 62.48 138.8 63.512 138.968 64.256C140.792 64.256 142.112 64.232 143.072 63.848C144.056 63.464 144.368 62.84 144.368 61.448V51.968H141.416ZM143.96 52.736L141.656 53.432C143.696 58.184 147.056 61.64 152.024 63.296C152.432 62.504 153.296 61.352 153.92 60.752C149.168 59.504 145.688 56.552 143.96 52.736ZM150.032 52.976C148.808 54.272 146.744 55.928 145.208 56.912L147.176 58.496C148.736 57.608 150.776 56.168 152.504 54.8L150.032 52.976ZM133.784 54.944C135.296 55.784 137.216 57.104 138.104 58.04L140.144 56.048C139.16 55.136 137.168 53.936 135.704 53.168L133.784 54.944ZM132.248 60.272L133.808 62.864C136.424 61.784 139.808 60.344 142.928 58.952L142.352 56.48C138.704 57.92 134.72 59.432 132.248 60.272ZM134.696 46.688V49.28H148.736V46.688H134.696ZM147.968 42.8V43.136C147.944 45.152 147.8 48.872 147.536 51.728L150.56 51.872C150.848 49.112 151.088 45.776 151.136 42.824L148.808 42.68L148.304 42.8H147.968ZM133.904 42.8V45.416H148.808V42.8H133.904ZM52.856 77.8V80.368H58.04V77.8H52.856ZM52.664 83.248V85.864H58.256V83.248H52.664ZM44.12 90.448V92.272H51.704V90.448H44.12ZM44.072 93.184V94.984H51.728V93.184H44.072ZM43.808 95.968V98.008H52.208V95.968H43.808ZM43.448 81.184H44.888V82.072H43.448V81.184ZM43.448 83.464H44.888V84.376H43.448V83.464ZM43.448 78.904H44.888V79.768H43.448V78.904ZM41.768 77.344V85.936H46.64V77.344H41.768ZM48.992 81.184H50.528V82.072H48.992V81.184ZM48.992 83.464H50.528V84.376H48.992V83.464ZM48.992 78.904H50.528V79.768H48.992V78.904ZM47.312 77.344V85.936H52.232V77.344H47.312ZM43.184 86.056C42.536 87.736 41.336 89.8 39.68 91.432C40.184 91.744 40.88 92.512 41.24 92.992C43.184 91 44.504 88.648 45.44 86.44L43.184 86.056ZM47.024 88.624V97.504H49.208V88.624H47.024ZM44.864 87.592H44.624L42.536 89.896V98.776H44.864V89.536H52.184V87.592H44.864ZM54.248 84.472V96.208C54.248 96.472 54.176 96.544 53.912 96.544C53.672 96.544 52.88 96.544 52.136 96.52C52.472 97.312 52.784 98.44 52.856 99.184C54.224 99.184 55.208 99.136 55.952 98.704C56.696 98.248 56.864 97.48 56.864 96.256V84.472H54.248ZM38.984 76.6C38.312 78.256 36.92 80.392 35.624 81.712C36.08 82.264 36.752 83.32 37.088 83.92C38.72 82.264 40.448 79.744 41.6 77.536L38.984 76.6ZM39.488 81.976C38.6 84.112 37.088 86.32 35.648 87.76C36.104 88.432 36.848 89.944 37.064 90.544C38.864 88.648 40.784 85.6 41.984 82.864L39.488 81.976ZM38.048 87.328V99.184H40.328V85.072V85.048L38.048 87.328ZM46.64 86.536C47.024 87.232 47.384 88.192 47.456 88.792L49.496 88.048C49.376 87.448 48.992 86.56 48.536 85.888L46.64 86.536ZM64.4 77.032V84.664C64.4 88.84 63.968 93.592 60.032 96.88C60.656 97.384 61.664 98.464 62.12 99.136C66.728 95.272 67.256 89.68 67.256 84.664V77.032H64.4ZM71.12 77.56V97.576H73.928V77.56H71.12ZM78.032 76.96V98.92H80.912V76.96H78.032ZM61.304 82.48C61.016 84.832 60.392 87.424 59.432 89.176L61.928 90.184C62.888 88.408 63.416 85.528 63.776 83.128L61.304 82.48ZM66.872 83.896C67.688 85.936 68.432 88.552 68.624 90.184L71.072 89.056C70.832 87.448 69.992 84.928 69.128 82.936L66.872 83.896ZM73.544 83.872C74.552 85.816 75.536 88.36 75.872 89.968L78.2 88.696C77.84 87.088 76.736 84.64 75.704 82.768L73.544 83.872ZM93.392 81.832V99.04H96.392V81.832H93.392ZM84.008 79.888V82.696H106.04V79.888H84.008ZM86.048 85.384V96.664H88.952V88.192H101.864V85.384H86.048ZM101.192 85.384V93.472C101.192 93.784 101.072 93.88 100.664 93.904C100.304 93.904 98.864 93.904 97.664 93.832C98.072 94.624 98.504 95.824 98.624 96.664C100.496 96.664 101.888 96.64 102.896 96.184C103.904 95.752 104.192 94.936 104.192 93.52V85.384H101.192ZM92.48 77.224C93.08 78.424 93.824 80.056 94.136 81.04L97.16 80.032C96.776 79.048 95.96 77.488 95.336 76.36L92.48 77.224ZM108.704 77.536V99.184H111.464V80.128H126.416V99.184H129.296V77.536H108.704ZM110.408 95.776V98.296H127.976V95.776H110.408ZM115.568 90.592C117.584 91.024 120.152 91.864 121.568 92.56L122.744 90.76C121.28 90.136 118.76 89.344 116.744 88.96L115.568 90.592ZM116.744 80.032C115.568 81.808 113.552 83.56 111.56 84.688C112.112 85.072 113.048 85.936 113.456 86.392C115.448 85.072 117.68 82.984 119.072 80.848L116.744 80.032ZM123.08 81.952V82.312C121.208 85.12 116 87.352 111.176 88.24C111.656 88.792 112.256 89.92 112.496 90.592C117.56 89.392 123.032 86.728 125.576 82.792L123.968 81.856L123.56 81.952H123.08ZM116.288 83.632L114.2 84.568C116.672 87.28 120.872 89.344 125.144 90.28C125.48 89.632 126.2 88.648 126.728 88.144C122.552 87.424 118.376 85.744 116.288 83.632ZM116.84 81.952L115.352 84.064H123.896V81.952H116.84ZM113.384 93.664C116.696 94.072 120.848 95.008 123.224 95.896L124.472 93.856C122 93.04 117.944 92.152 114.68 91.792L113.384 93.664ZM151.064 87.112L151.04 87.52C150.776 91.792 150.44 93.736 149.888 94.216C149.6 94.432 149.312 94.456 148.832 94.456C148.184 94.456 146.624 94.432 145.16 94.312C145.712 95.08 146.096 96.232 146.144 97.072C147.656 97.12 149.12 97.12 149.96 97.048C150.992 96.976 151.712 96.76 152.36 96.04C153.152 95.224 153.56 93.112 153.92 88.288C153.968 87.904 154.016 87.112 154.016 87.112H151.064ZM140.24 76.696V99.064H143.192V76.696H140.24ZM147.464 78.976C149.072 80.008 151.304 81.52 152.36 82.48L154.112 80.272C152.984 79.36 150.68 77.944 149.12 77.032L147.464 78.976ZM132.344 87.112V89.848H152.504V87.112H132.344ZM133.64 80.656V83.44H147.632V88.96H150.512V80.656H133.64ZM167.84 95.896V98.32H175.832V95.896H167.84ZM165.704 83.128V99.112H168.488V83.128H165.704ZM167.84 83.128V85.408H173.528V87.496H167.84V89.752H176.168V83.128H167.84ZM164.648 79.336V83.704H167.408V81.808H174.944V83.704H177.848V79.336H164.648ZM167.6 91.192V93.544H174.44V99.04H177.2V91.192H167.6ZM169.376 77.224C169.808 78.016 170.216 79.096 170.36 79.792L173.24 78.856C173.072 78.184 172.616 77.176 172.136 76.432L169.376 77.224ZM158.312 79.984V82.504H162.728V79.984H158.312ZM158 76.624C157.544 80.008 156.728 83.44 155.48 85.624C156.08 86.056 157.16 87.04 157.592 87.52C159.032 84.976 160.112 80.992 160.688 77.128L158 76.624ZM162.032 79.984V80.368C161.744 81.904 161.192 83.824 160.736 85.024L162.968 85.744C163.616 84.376 164.288 82.264 164.768 80.392L162.872 79.888L162.44 79.984H162.032ZM158.816 99.136C159.248 98.584 160.088 97.96 164.672 94.768C164.432 94.192 164.096 93.04 163.952 92.248L158.912 95.584L158.24 96.496L158.816 99.136ZM158.816 99.136C158.816 98.08 161.552 95.704 161.552 95.704V85.456H158.792V94.24C158.792 95.608 157.832 96.688 157.208 97.168C157.688 97.6 158.528 98.56 158.816 99.136Z" fill="white"/>
</g>
</svg>
