<svg width="23" height="16" viewBox="0 0 23 16" fill="none" xmlns="http://www.w3.org/2000/svg">
<path fill-rule="evenodd" clip-rule="evenodd" d="M3.68973 14.2222H0.884615C0.650192 14.2222 0.425057 14.1284 0.259192 13.9618C0.0933263 13.7951 0 13.5689 0 13.3333C0 10.7796 0 3.44222 0 0.888889C0 0.653333 0.0933263 0.42711 0.259192 0.260444C0.425057 0.0937771 0.650192 0 0.884615 0C3.55085 0 11.4876 0 14.1538 0C14.6426 0 15.0385 0.397778 15.0385 0.888889V2.66667H18.7101C19.4872 2.66667 20.2068 3.07645 20.6067 3.74578C21.3427 4.97822 22.4944 6.90667 22.8739 7.54267C22.9562 7.68089 23 7.83911 23 8C23 8.87067 23 11.8316 23 13.3333C23 13.5689 22.9067 13.7951 22.7408 13.9618C22.5749 14.1284 22.3498 14.2222 22.1154 14.2222H19.3103C18.9458 15.2573 17.9621 16 16.8077 16C15.6533 16 14.6696 15.2573 14.3051 14.2222H8.69489C8.33043 15.2573 7.34673 16 6.19231 16C5.03788 16 4.05419 15.2573 3.68973 14.2222ZM6.19231 12.4444C6.68062 12.4444 7.07692 12.8427 7.07692 13.3333C7.07692 13.824 6.68062 14.2222 6.19231 14.2222C5.704 14.2222 5.30769 13.824 5.30769 13.3333C5.30769 12.8427 5.704 12.4444 6.19231 12.4444ZM16.8077 12.4444C17.296 12.4444 17.6923 12.8427 17.6923 13.3333C17.6923 13.824 17.296 14.2222 16.8077 14.2222C16.3194 14.2222 15.9231 13.824 15.9231 13.3333C15.9231 12.8427 16.3194 12.4444 16.8077 12.4444ZM13.2692 1.77778H1.76923V12.4444H3.68973C4.05419 11.4093 5.03788 10.6667 6.19231 10.6667C7.34673 10.6667 8.33043 11.4093 8.69489 12.4444H14.3051C14.6696 11.4093 15.6533 10.6667 16.8077 10.6667C17.9621 10.6667 18.9458 11.4093 19.3103 12.4444H21.2308V8.88889H17.6923C17.2036 8.88889 16.8077 8.49111 16.8077 8C16.8077 7.50889 17.2036 7.11111 17.6923 7.11111H20.5532L19.2183 4.876C19.0586 4.60844 18.7707 4.44444 18.4597 4.44444H15.0385V8C15.0385 8.49111 14.6426 8.88889 14.1538 8.88889C13.6651 8.88889 13.2692 8.49111 13.2692 8V1.77778Z" fill="#1264E0"/>
</svg>
