<svg width="20" height="20" viewBox="0 0 20 20" fill="none" xmlns="http://www.w3.org/2000/svg">
<path d="M9.12642 0.56801C9.50773 -0.116404 10.4923 -0.116404 10.8736 0.56801L13.3388 4.99292C13.4771 5.24114 13.7144 5.41881 13.9916 5.48155L18.846 6.58054C19.58 6.74671 19.8743 7.63349 19.3854 8.20557L16.03 12.1315C15.8536 12.3379 15.7687 12.6072 15.7949 12.8776L16.2978 18.0704C16.3722 18.8387 15.5851 19.398 14.884 19.075L10.4184 17.0178C10.1529 16.8954 9.84711 16.8954 9.58157 17.0178L5.116 19.075C4.41494 19.398 3.62782 18.8387 3.70223 18.0704L4.20514 12.8776C4.23132 12.6072 4.14643 12.3379 3.96998 12.1315L0.614636 8.20557C0.1257 7.63349 0.420043 6.7467 1.15402 6.58054L6.00843 5.48155C6.28556 5.41881 6.52291 5.24114 6.6612 4.99292L9.12642 0.56801Z" fill="#1A87F6"/>
</svg>
