<svg width="22" height="21" viewBox="0 0 22 21" fill="none" xmlns="http://www.w3.org/2000/svg">
<path d="M10.1264 1.56801C10.5077 0.883596 11.4923 0.883596 11.8736 1.56801L14.3388 5.99292C14.4771 6.24114 14.7144 6.41881 14.9916 6.48155L19.846 7.58054C20.58 7.74671 20.8743 8.63349 20.3854 9.20557L17.03 13.1315C16.8536 13.3379 16.7687 13.6072 16.7949 13.8776L17.2978 19.0704C17.3722 19.8387 16.5851 20.398 15.884 20.075L11.4184 18.0178C11.1529 17.8954 10.8471 17.8954 10.5816 18.0178L6.116 20.075C5.41494 20.398 4.62782 19.8387 4.70223 19.0704L5.20514 13.8776C5.23132 13.6072 5.14643 13.3379 4.96998 13.1315L1.61464 9.20557C1.1257 8.63349 1.42004 7.7467 2.15402 7.58054L7.00843 6.48155C7.28556 6.41881 7.52291 6.24114 7.6612 5.99292L10.1264 1.56801Z" stroke="#BFD5EC" stroke-width="1.5"/>
</svg>
